<?xml version="1.0" encoding="UTF-8"?>
<svg version="1.1" xmlns="http://www.w3.org/2000/svg" width="366" height="364">
<path d="M0 0 C120.78 0 241.56 0 366 0 C366 120.12 366 240.24 366 364 C245.22 364 124.44 364 0 364 C0 243.88 0 123.76 0 0 Z " fill="#FCFCFC" transform="translate(0,0)"/>
<path d="M0 0 C1.84996582 -0.00856522 1.84996582 -0.00856522 3.73730469 -0.01730347 C5.09118642 -0.01854861 6.44506827 -0.01967375 7.7989502 -0.02069092 C9.23523077 -0.02532413 10.67151013 -0.03034946 12.10778809 -0.03573608 C16.00081019 -0.04881804 19.89381507 -0.0552974 23.7868557 -0.05974674 C26.22493594 -0.06268571 28.66301157 -0.06679215 31.10108948 -0.07125092 C38.7459929 -0.08491795 46.39088567 -0.09458715 54.03580046 -0.09845281 C62.82882689 -0.1029246 71.62169719 -0.12043486 80.41467619 -0.1494534 C87.23109863 -0.17115918 94.04747745 -0.18116189 100.86393404 -0.18249393 C104.92541808 -0.18353608 108.9867552 -0.18931636 113.04820251 -0.20731354 C116.87650127 -0.22394773 120.70454513 -0.22587646 124.53286743 -0.21717453 C125.9266987 -0.21641214 127.32054456 -0.22063943 128.71434021 -0.23063278 C141.23512435 -0.31503369 152.88707614 1.73802427 164.62902832 6.07794189 C165.30965332 6.31706299 165.99027832 6.55618408 166.69152832 6.80255127 C174.40988306 9.58321329 181.34503012 13.2977828 188.12902832 17.89044189 C189.10065918 18.54568848 189.10065918 18.54568848 190.09191895 19.21417236 C198.64701695 25.04429749 206.23289306 31.05602079 212.75402832 39.14044189 C213.4011377 39.91259033 214.04824707 40.68473877 214.71496582 41.48028564 C222.85952001 51.3567278 228.49967469 61.0621571 232.75402832 73.14044189 C233.22807602 74.33826797 233.70212372 75.53609406 234.1905365 76.7702179 C239.71229347 91.52550852 240.35173663 106.97962849 240.25012207 122.55059814 C240.25027773 124.53915968 240.25177775 126.5277215 240.25453186 128.51628113 C240.25590264 132.64838364 240.24358142 136.78013348 240.22058105 140.91217041 C240.19218218 146.15171279 240.19495709 151.39067193 240.20767117 156.63025761 C240.2146965 160.72548723 240.20676208 164.82058707 240.19441414 168.91580009 C240.18996718 170.84547868 240.18950205 172.77517154 240.19347954 174.70485115 C240.23132371 209.19476214 231.01577442 239.76751575 206.20080566 264.74591064 C195.41684345 275.14044189 195.41684345 275.14044189 191.75402832 275.14044189 C191.75163997 274.53674271 191.74925161 273.93304352 191.74679089 273.31105042 C191.68738645 258.55101246 191.61167663 243.79112378 191.51831341 229.03126526 C191.47354578 221.89319343 191.43408858 214.75516937 191.40759277 207.61700439 C191.38445709 201.38784843 191.35088924 195.15884613 191.30532676 188.92981243 C191.28160172 185.63838682 191.26429639 182.34714047 191.25641441 179.05563354 C191.22050742 165.42935768 191.07419828 152.41297473 187.75402832 139.14044189 C187.46634583 137.88668762 187.46634583 137.88668762 187.17285156 136.60760498 C184.54647875 125.65755657 180.12848228 115.97545354 174.75402832 106.14044189 C174.19844238 105.08083252 173.64285645 104.02122314 173.07043457 102.92950439 C168.60656835 94.77251144 162.96240972 88.00043184 156.75402832 81.14044189 C156.09660645 80.41083252 155.43918457 79.68122314 154.76184082 78.92950439 C142.55614203 66.09518593 127.07080163 55.85014307 110.75402832 49.14044189 C110.0290918 48.83122803 109.30415527 48.52201416 108.55725098 48.20343018 C102.63102533 45.7338795 96.75896127 43.94088977 90.50402832 42.51544189 C89.5836377 42.30379395 88.66324707 42.092146 87.71496582 41.87408447 C62.04193062 36.0918086 36.49381956 36.40320628 11.75402832 46.14044189 C10.78723145 46.50911377 9.82043457 46.87778564 8.82434082 47.25762939 C-21.67931129 59.37985997 -44.47961444 81.02958179 -59.68347168 109.82794189 C-60.17976074 110.76549316 -60.6760498 111.70304443 -61.18737793 112.66900635 C-65.92281494 121.92882349 -69.09427986 131.58618404 -71.43347168 141.70294189 C-71.59782715 142.36745361 -71.76218262 143.03196533 -71.93151855 143.71661377 C-74.96824775 156.63808089 -74.4551035 170.0270368 -74.56237793 183.21466064 C-74.58298063 185.35128654 -74.60397789 187.48790865 -74.62535095 189.62452698 C-74.6802295 195.21555504 -74.72978796 200.80661777 -74.77819824 206.39770508 C-74.82866502 212.11601808 -74.88421893 217.83428148 -74.93933105 223.55255127 C-75.04649334 234.74847232 -75.1480293 245.94443666 -75.24597168 257.14044189 C-83.18905282 254.49274818 -88.8437586 240.75632227 -92.58972168 233.55841064 C-98.97447437 220.26333111 -102.56152268 205.63068296 -102.52062988 190.89581299 C-102.52574081 189.92518921 -102.53085175 188.95456543 -102.53611755 187.95452881 C-102.54991439 184.77424799 -102.54906363 181.59418643 -102.54675293 178.41387939 C-102.55064653 176.17963584 -102.55498255 173.94539301 -102.55973816 171.71115112 C-102.56718006 167.036027 -102.56692474 162.36097841 -102.56164551 157.68585205 C-102.55586706 151.7350692 -102.57275271 145.78459924 -102.59599018 139.83386803 C-102.61082499 135.2197798 -102.61158581 130.60576512 -102.60848045 125.99165726 C-102.60898922 123.79991666 -102.61414211 121.60817146 -102.62429237 119.41645432 C-102.76485339 84.81102725 -93.13507327 57.51729892 -69.24597168 32.14044189 C-68.64526855 31.46368408 -68.04456543 30.78692627 -67.42565918 30.08966064 C-51.45227928 12.83702738 -23.50239478 0.06547948 0 0 Z " fill="#222D38" transform="translate(115.2459716796875,7.85955810546875)"/>
<path d="M0 0 C0.92425781 0.7115625 1.84851563 1.423125 2.80078125 2.15625 C8.52052806 6.67632055 13.46364888 11.30501375 18 17 C18.78117188 17.93328125 19.56234375 18.8665625 20.3671875 19.828125 C27.00126578 27.92060606 31.72172038 36.47501992 36 46 C36.42152344 46.92941406 36.84304688 47.85882813 37.27734375 48.81640625 C45.70826465 68.63702406 45.30454256 89.87080295 45.265625 110.98828125 C45.26697504 113.58465104 45.2689184 116.18102059 45.27142334 118.77738953 C45.274356 124.19089429 45.27033078 129.60432692 45.26074219 135.01782227 C45.24983506 141.24707815 45.25341014 147.47620329 45.264395 153.70545608 C45.27461108 159.74428548 45.27347181 165.78305165 45.26763153 171.82188988 C45.2663037 174.372225 45.26791217 176.92256349 45.27259064 179.47289467 C45.27770183 183.03971692 45.26988248 186.60629176 45.25878906 190.1730957 C45.26283752 191.2117981 45.26688599 192.25050049 45.27105713 193.32067871 C45.19232762 207.06945236 42.30732907 220.35482503 32.9375 230.9375 C22.01749851 240.6496458 8.451323 243.31071371 -5.64746094 243.25537109 C-7.34449158 243.26080177 -7.34449158 243.26080177 -9.07580566 243.26634216 C-11.51964261 243.27320711 -13.96349479 243.27574707 -16.407341 243.27439499 C-20.28470612 243.27342491 -24.16179769 243.28642988 -28.03912354 243.30337524 C-39.05893285 243.35015777 -50.07872844 243.37432303 -61.09863281 243.38085938 C-67.85240735 243.38503411 -74.60588814 243.41022964 -81.35956573 243.44618607 C-83.9221855 243.45594198 -86.48484491 243.45833919 -89.04747772 243.45301437 C-107.43695282 243.21300823 -107.43695282 243.21300823 -125 248 C-126.54400856 248.52162008 -128.09154765 249.03308483 -129.64453125 249.52734375 C-131.03426749 249.99617239 -132.42359221 250.4662227 -133.8125 250.9375 C-139.7280754 252.92986782 -145.65994147 254.84868967 -151.625 256.6875 C-156.08675612 258.06656878 -160.50945896 259.48317169 -164.86328125 261.17578125 C-167.9988755 262.38530664 -171.1539161 263.53979836 -174.3125 264.6875 C-175.50488281 265.12449219 -176.69726562 265.56148438 -177.92578125 266.01171875 C-181 267 -181 267 -184 267 C-184.78051758 264.81802368 -184.78051758 264.81802368 -185 262 C-183.2253418 259.57528687 -183.2253418 259.57528687 -180.51171875 256.91162109 C-176.21132823 252.56490429 -172.51618918 248.06384088 -168.9553833 243.09324455 C-158.12214904 228.22498974 -145.23856319 212.81534801 -126.23182392 209.62576938 C-108.11259577 207.07812471 -89.45727463 208.14854173 -71.24873257 209.04376245 C-62.31537139 209.47643858 -53.37888245 209.66754303 -44.4375 209.8515625 C-41.28919568 209.91653602 -38.1409176 209.98250656 -34.99267578 210.05044556 C-34.23070452 210.06677021 -33.46873325 210.08309486 -32.68367195 210.09991419 C-28.18872398 210.20226752 -23.69802407 210.34916315 -19.20595932 210.53972602 C-17.09924522 210.62887933 -14.99236808 210.71015966 -12.88525391 210.78923035 C-10.3257722 210.88864485 -7.76684401 211.00417503 -5.20898438 211.13902283 C1.4887968 211.52106914 1.4887968 211.52106914 7.68310547 209.37857056 C13.10206885 203.81535368 12.29158814 196.92359064 12.2746582 189.6171875 C12.27976913 188.47812454 12.28488007 187.33906158 12.29014587 186.16548157 C12.30403753 182.40193412 12.30308451 178.63857004 12.30078125 174.875 C12.30467013 172.24910413 12.3090052 169.62320889 12.31376648 166.99731445 C12.32197375 161.4895669 12.32107728 155.98187064 12.31567383 150.47412109 C12.30965472 144.1405722 12.32189474 137.80724661 12.3432439 131.47373581 C12.36311315 125.35056904 12.36601771 119.22750515 12.36250877 113.10430908 C12.36301952 110.51458209 12.36821058 107.92485135 12.37832069 105.33514404 C12.58909221 86.4474078 12.58909221 86.4474078 9 68 C8.78272751 67.26321518 8.56545502 66.52643036 8.34159851 65.76731873 C5.20775791 56.03414711 0.17466364 48.07108684 -6 40 C-6.70189453 39.00419922 -6.70189453 39.00419922 -7.41796875 37.98828125 C-18.02338192 23.98913587 -38.18333495 14.93536316 -55 12 C-77.61433466 9.92979447 -99.49274322 13.72401226 -117.5 28.3125 C-118.2940625 28.98925781 -119.088125 29.66601562 -119.90625 30.36328125 C-122 32 -122 32 -125 33 C-125.70418442 34.31390507 -126.36502934 35.65128413 -127 37 C-128.18324305 38.45822206 -129.39483179 39.89364065 -130.625 41.3125 C-141.99814566 55.35316528 -147.98901801 71.65521697 -148.20532227 89.70117188 C-148.21522186 90.42410431 -148.22512146 91.14703674 -148.23532104 91.89187622 C-148.26658347 94.25080231 -148.29155192 96.60974846 -148.31640625 98.96875 C-148.33700635 100.61641932 -148.35800356 102.26408372 -148.37937927 103.91174316 C-148.43428468 108.22542305 -148.48383153 112.5391481 -148.53222656 116.85290527 C-148.58267345 121.26395638 -148.63823786 125.67494277 -148.69335938 130.0859375 C-148.80055462 138.72390344 -148.90208356 147.36192391 -149 156 C-150.07596436 156.52601807 -151.15192871 157.05203613 -152.26049805 157.59399414 C-153.69851625 158.30332258 -155.1364169 159.01288937 -156.57421875 159.72265625 C-157.28026245 160.06703735 -157.98630615 160.41141846 -158.71374512 160.76623535 C-164.36646325 163.56575417 -169.4850978 166.79708272 -174.64453125 170.43359375 C-177 172 -177 172 -180 173 C-180.11670507 160.58517395 -180.20512205 148.17048195 -180.25906086 135.75521564 C-180.28497051 129.98805955 -180.32002135 124.22128329 -180.37719727 118.4543457 C-180.43218999 112.87161301 -180.46155991 107.28924177 -180.47438622 101.70625877 C-180.483507 99.59395864 -180.50131075 97.48167452 -180.52865028 95.36953163 C-180.84494972 69.88102725 -175.40705317 45.7283647 -160 25 C-159.48179687 24.26007813 -158.96359375 23.52015625 -158.4296875 22.7578125 C-140.84142751 -1.37080547 -113.83377235 -17.85538055 -84.3671875 -22.49609375 C-55.3951409 -26.28989292 -23.0565838 -18.22899088 0 0 Z " fill="#232E39" transform="translate(242,89)"/>
<path d="M0 0 C0 0.66 0 1.32 0 2 C0.59425781 2.28359375 1.18851562 2.5671875 1.80078125 2.859375 C13.11211132 8.72599735 20.20209492 22.26359349 24 34 C26.91327677 43.24085448 27.40279602 52.00715583 27.29296875 61.609375 C27.28735778 63.07195597 27.2830948 64.53454267 27.28010559 65.99713135 C27.26877468 69.80460807 27.23941248 73.61172904 27.20599365 77.41906738 C27.1750357 81.320996 27.16154589 85.22298338 27.14648438 89.125 C27.11452841 96.75016034 27.06347904 104.3750299 27 112 C22.812441 111.37723103 19.25061758 110.3358284 15.30712891 108.79345703 C10.71758504 107.21504248 5.93992079 106.38202501 1.1875 105.4375 C0.17107422 105.22931641 -0.84535156 105.02113281 -1.89257812 104.80664062 C-3.94537667 104.3892775 -6.0002106 103.98180998 -8.05688477 103.58398438 C-9.8582652 103.22654746 -11.65505866 102.8432943 -13.44116211 102.41601562 C-22.4952237 100.401796 -31.72885272 100.62787782 -40.95727539 100.62939453 C-43.89985573 100.62505551 -46.84089029 100.58874658 -49.78320312 100.55078125 C-65.11671989 100.46039583 -79.31274122 102.65717055 -94 107 C-94.09352498 98.93182693 -94.16417604 90.86388801 -94.20724869 82.79530334 C-94.22794279 79.04693171 -94.25591766 75.29893639 -94.30175781 71.55078125 C-94.34587766 67.91971249 -94.36927288 64.28900087 -94.37950897 60.65768433 C-94.39027472 58.6285217 -94.42138881 56.59949868 -94.45318604 54.57055664 C-94.45776335 35.17616189 -88.33031054 19.53249521 -74.76953125 5.6328125 C-71.11621027 2.15983882 -67.39635245 -0.55667401 -63 -3 C-62.36835938 -3.37511719 -61.73671875 -3.75023438 -61.0859375 -4.13671875 C-41.93830519 -14.73489384 -17.88744518 -11.36913889 0 0 Z " fill="#222E3A" transform="translate(208,131)"/>
<path d="M0 0 C0.33 0 0.66 0 1 0 C1.83712435 7.09408417 2.16392291 14.09288005 2.20532227 21.23291016 C2.21522186 22.30726318 2.22512146 23.38161621 2.23532104 24.48852539 C2.26666375 28.00534942 2.29158472 31.52218692 2.31640625 35.0390625 C2.33699935 37.49100069 2.35799641 39.94293551 2.37937927 42.39486694 C2.43435675 48.82270572 2.48387251 55.25057524 2.53222656 61.6784668 C2.58262008 68.24791167 2.63821263 74.81731236 2.69335938 81.38671875 C2.80064308 94.25777444 2.90232998 107.12886795 3 120 C4.485 119.505 4.485 119.505 6 119 C6 119.66 6 120.32 6 121 C2.53846154 124 2.53846154 124 0 124 C0 83.08 0 42.16 0 0 Z " fill="#111B21" transform="translate(307,159)"/>
<path d="M0 0 C0 0.33 0 0.66 0 1 C-8.91 1 -17.82 1 -27 1 C-27 1.66 -27 2.32 -27 3 C-28.8125 3.6875 -28.8125 3.6875 -31 4 C-32.63671875 2.51953125 -32.63671875 2.51953125 -34 1 C-23.11954217 -2.46196386 -10.90343475 -4.23647387 0 0 Z " fill="#34383C" transform="translate(187,123)"/>
<path d="M0 0 C0 0.33 0 0.66 0 1 C-5.94 1 -11.88 1 -18 1 C-18.33 1.99 -18.66 2.98 -19 4 C-24.57936203 4.94743883 -27.19155649 5.20562901 -32 2 C-21.49516888 -0.75536554 -10.76289377 -0.1948442 0 0 Z " fill="#474C53" transform="translate(183,66)"/>
<path d="M0 0 C-0.55312735 4.02992782 -1.1558062 8.02022924 -2 12 C-2.66 12 -3.32 12 -4 12 C-4.66 13.32 -5.32 14.64 -6 16 C-6 11.05 -6 6.1 -6 1 C-2 0 -2 0 0 0 Z " fill="#2F353C" transform="translate(45,143)"/>
<path d="M0 0 C0.33 0.66 0.66 1.32 1 2 C1.99 2 2.98 2 4 2 C4.33 2.99 4.66 3.98 5 5 C0.545 6.485 0.545 6.485 -4 8 C-4.33 7.34 -4.66 6.68 -5 6 C-5.66 5.67 -6.32 5.34 -7 5 C-4.53846154 1.18461538 -4.53846154 1.18461538 -1.8125 0.25 C-1.214375 0.1675 -0.61625 0.085 0 0 Z " fill="#2B343C" transform="translate(122,49)"/>
<path d="M0 0 C3.9166043 -0.0580966 7.83309763 -0.09362893 11.75 -0.125 C12.86117187 -0.14175781 13.97234375 -0.15851563 15.1171875 -0.17578125 C16.72207031 -0.18544922 16.72207031 -0.18544922 18.359375 -0.1953125 C19.34389648 -0.20578613 20.32841797 -0.21625977 21.34277344 -0.22705078 C24.05973111 0.00510382 25.68112513 0.60963727 28 2 C26.04434742 2.38873828 24.08533496 2.76060833 22.125 3.125 C21.03445312 3.33382812 19.94390625 3.54265625 18.8203125 3.7578125 C17.42425781 3.87769531 17.42425781 3.87769531 16 4 C15.34 3.34 14.68 2.68 14 2 C11.63490639 1.69940057 9.25558119 1.50484988 6.875 1.375 C4.95300781 1.26285156 4.95300781 1.26285156 2.9921875 1.1484375 C1.51105469 1.07496094 1.51105469 1.07496094 0 1 C0 0.67 0 0.34 0 0 Z M14 4 C16 5 16 5 16 5 Z " fill="#1D222B" transform="translate(165,67)"/>
<path d="M0 0 C0 1.66666667 0 3.33333333 0 5 C0.31802943 6.66965451 0.64984951 8.33678518 1 10 C0.34 10 -0.32 10 -1 10 C-1 10.66 -1 11.32 -1 12 C-1.66 12 -2.32 12 -3 12 C-3 11.01 -3 10.02 -3 9 C-3.99 9.66 -4.98 10.32 -6 11 C-6.71484375 9.234375 -6.71484375 9.234375 -7 7 C-5.56640625 5.078125 -5.56640625 5.078125 -3.5625 3.25 C-2.90378906 2.63640625 -2.24507813 2.0228125 -1.56640625 1.390625 C-1.04949219 0.93171875 -0.53257813 0.4728125 0 0 Z " fill="#2D373D" transform="translate(84,323)"/>
<path d="M0 0 C0.99 0.33 1.98 0.66 3 1 C3 1.66 3 2.32 3 3 C-0.87036007 6.08284263 -5.00786149 8.53198701 -10 9 C-9.67 7.68 -9.34 6.36 -9 5 C-7.02 5.495 -7.02 5.495 -5 6 C-5 5.34 -5 4.68 -5 4 C-4.34 4 -3.68 4 -3 4 C-3 3.34 -3 2.68 -3 2 C-2.01 1.34 -1.02 0.68 0 0 Z " fill="#2D353B" transform="translate(129,109)"/>
<path d="M0 0 C1.21386936 3.64160808 0.6674695 4.33165469 -0.9375 7.6875 C-1.31777344 8.49574219 -1.69804687 9.30398437 -2.08984375 10.13671875 C-2.39019531 10.75160156 -2.69054687 11.36648437 -3 12 C-3.66 11.67 -4.32 11.34 -5 11 C-5.36923077 5.58461538 -5.36923077 5.58461538 -3.5 2.625 C-3.005 2.08875 -2.51 1.5525 -2 1 C-1.67 1.33 -1.34 1.66 -1 2 C-0.67 1.34 -0.34 0.68 0 0 Z " fill="#21282E" transform="translate(347,229)"/>
<path d="M0 0 C3 0 3 0 4.75 1.6875 C6 4 6 4 5.6875 6.75 C5.460625 7.4925 5.23375 8.235 5 9 C3.68 8.67 2.36 8.34 1 8 C1 7.34 1 6.68 1 6 C0.34 6 -0.32 6 -1 6 C-1 5.34 -1 4.68 -1 4 C-0.34 4 0.32 4 1 4 C1 3.34 1 2.68 1 2 C0.34 1.67 -0.32 1.34 -1 1 C-0.67 0.67 -0.34 0.34 0 0 Z " fill="#2D353C" transform="translate(271,128)"/>
<path d="M0 0 C0.66 1.32 1.32 2.64 2 4 C2.66 3.34 3.32 2.68 4 2 C4 4.31 4 6.62 4 9 C3.34 9 2.68 9 2 9 C1.34 10.98 0.68 12.96 0 15 C-0.33 15 -0.66 15 -1 15 C-1.09038099 9.84828377 -0.84681133 5.08086796 0 0 Z " fill="#373C43" transform="translate(14,100)"/>
<path d="M0 0 C1.32 0.66 2.64 1.32 4 2 C3.01 2.33 2.02 2.66 1 3 C1 3.66 1 4.32 1 5 C-1.97 6.65 -4.94 8.3 -8 10 C-5.77502475 5.55004949 -3.55366005 3.39915309 0 0 Z " fill="#1A2229" transform="translate(49,37)"/>
<path d="M0 0 C0.99 0.66 1.98 1.32 3 2 C2.2575 2.53625 1.515 3.0725 0.75 3.625 C-2.17674961 6.15264739 -3.98621339 8.71827368 -6 12 C-6.66 11.67 -7.32 11.34 -8 11 C-7.43040847 7.37386801 -6.07625466 5.74482259 -3.4375 3.25 C-2.79683594 2.63640625 -2.15617188 2.0228125 -1.49609375 1.390625 C-1.00238281 0.93171875 -0.50867188 0.4728125 0 0 Z " fill="#333740" transform="translate(136,134)"/>
<path d="M0 0 C0.66 0.33 1.32 0.66 2 1 C2 2.65 2 4.3 2 6 C2.66 6 3.32 6 4 6 C4.33 5.34 4.66 4.68 5 4 C5 4.99 5 5.98 5 7 C1.625 7.625 1.625 7.625 -2 8 C-2.66 7.34 -3.32 6.68 -4 6 C-2.68 4.02 -1.36 2.04 0 0 Z " fill="#30373F" transform="translate(79,118)"/>
<path d="M0 0 C1 3 1 3 1 5 C-3.31818182 9.65909091 -3.31818182 9.65909091 -6 11 C-6.71484375 9.234375 -6.71484375 9.234375 -7 7 C-5.56640625 5.078125 -5.56640625 5.078125 -3.5625 3.25 C-2.90378906 2.63640625 -2.24507813 2.0228125 -1.56640625 1.390625 C-1.04949219 0.93171875 -0.53257813 0.4728125 0 0 Z " fill="#303538" transform="translate(76,331)"/>
<path d="M0 0 C0.33 0 0.66 0 1 0 C1.21354229 5.87241294 0.88691666 11.38584055 -1 17 C-1.66 17.66 -2.32 18.32 -3 19 C-2.69127671 16.39533457 -2.37818277 13.79132309 -2.0625 11.1875 C-1.97548828 10.44951172 -1.88847656 9.71152344 -1.79882812 8.95117188 C-1.41783454 5.83266879 -0.99630626 2.98891878 0 0 Z " fill="#1B2228" transform="translate(352,206)"/>
<path d="M0 0 C0.33 0.66 0.66 1.32 1 2 C-0.65909182 6.10406925 -2.21704034 8.65195608 -6 11 C-6.71484375 9.234375 -6.71484375 9.234375 -7 7 C-5.56640625 5.078125 -5.56640625 5.078125 -3.5625 3.25 C-2.90378906 2.63640625 -2.24507813 2.0228125 -1.56640625 1.390625 C-1.04949219 0.93171875 -0.53257813 0.4728125 0 0 Z " fill="#2F343A" transform="translate(92,315)"/>
<path d="M0 0 C0.33 0.99 0.66 1.98 1 3 C3.97 3 6.94 3 10 3 C9.34 4.32 8.68 5.64 8 7 C4.7 6.01 1.4 5.02 -2 4 C-2 3.01 -2 2.02 -2 1 C-1.34 0.67 -0.68 0.34 0 0 Z " fill="#2F363D" transform="translate(220,50)"/>
<path d="M0 0 C0.66 1.32 1.32 2.64 2 4 C1.38125 4.5878125 1.38125 4.5878125 0.75 5.1875 C-1.10893043 7.04732931 -1.10893043 7.04732931 -2.9375 9.5 C-4.81881225 11.78037848 -6.56866217 13.35016362 -9 15 C-9 11.26162601 -8.12513156 10.72080315 -5.625 8.0625 C-3.21766708 5.49170621 -1.43053714 3.22954597 0 0 Z " fill="#E6E7E9" transform="translate(281,309)"/>
<path d="M0 0 C2.64 0.66 5.28 1.32 8 2 C4.53555803 3.85595105 1.7126047 5.33300647 -2.25 4.5625 C-2.8275 4.376875 -3.405 4.19125 -4 4 C-4 3.01 -4 2.02 -4 1 C-2.68 1.33 -1.36 1.66 0 2 C0 1.34 0 0.68 0 0 Z " fill="#31363F" transform="translate(74,346)"/>
<path d="M0 0 C-1.1875 2.4375 -1.1875 2.4375 -3 5 C-5.6875 5.8125 -5.6875 5.8125 -8 6 C-8 4.02 -8 2.04 -8 0 C-2.25 -1.125 -2.25 -1.125 0 0 Z " fill="#2C343B" transform="translate(317,274)"/>
<path d="M0 0 C0.99 0.66 1.98 1.32 3 2 C2.34 3.65 1.68 5.3 1 7 C-0.32 7 -1.64 7 -3 7 C-1.125 1.125 -1.125 1.125 0 0 Z M3 0 C3.66 0 4.32 0 5 0 C4.67 0.66 4.34 1.32 4 2 C3.67 1.34 3.34 0.68 3 0 Z " fill="#2F3740" transform="translate(122,151)"/>
<path d="M0 0 C3.57011026 3.732388 4.10913442 8.0949989 5 13 C4.34 13 3.68 13 3 13 C3 12.01 3 11.02 3 10 C2.01 9.67 1.02 9.34 0 9 C0 6.03 0 3.06 0 0 Z " fill="#333A3F" transform="translate(277,135)"/>
<path d="M0 0 C2.13533172 2.59953427 3.56459104 4.62558054 4 8 C3.67 8.99 3.34 9.98 3 11 C2.34 11 1.68 11 1 11 C-1.03684712 6.92630576 -1.0257259 4.41062136 0 0 Z " fill="#2E363A" transform="translate(343,71)"/>
<path d="M0 0 C0.66 0.66 1.32 1.32 2 2 C1.625 5.625 1.625 5.625 1 9 C-0.98 7.68 -2.96 6.36 -5 5 C-4.34 4.67 -3.68 4.34 -3 4 C-3 3.34 -3 2.68 -3 2 C-2.01 1.34 -1.02 0.68 0 0 Z " fill="#2E373E" transform="translate(266,74)"/>
<path d="M0 0 C-1.20703125 1.51953125 -1.20703125 1.51953125 -3 3 C-5.26171875 3.07421875 -5.26171875 3.07421875 -7.6875 2.6875 C-8.89986328 2.50767578 -8.89986328 2.50767578 -10.13671875 2.32421875 C-10.75160156 2.21722656 -11.36648437 2.11023438 -12 2 C-7.47621396 -1.01585736 -5.21315314 -1.04263063 0 0 Z " fill="#333642" transform="translate(95,14)"/>
<path d="M0 0 C-1.6209213 1.17232685 -3.24686833 2.3377077 -4.875 3.5 C-5.77992187 4.1496875 -6.68484375 4.799375 -7.6171875 5.46875 C-10 7 -10 7 -12 7 C-12 6.34 -12 5.68 -12 5 C-4.31746032 -2.15873016 -4.31746032 -2.15873016 0 0 Z " fill="#252A2E" transform="translate(75,254)"/>
<path d="M0 0 C0.33 0.66 0.66 1.32 1 2 C0.01 2.495 0.01 2.495 -1 3 C-0.34 3.33 0.32 3.66 1 4 C1 5.32 1 6.64 1 8 C-2.43595166 6.47291037 -5.11912454 4.40072955 -8 2 C-5.36 1.34 -2.72 0.68 0 0 Z " fill="#353D44" transform="translate(204,98)"/>
<path d="M0 0 C0 0.99 0 1.98 0 3 C-0.99 3 -1.98 3 -3 3 C-2.01 2.01 -1.02 1.02 0 0 Z M-5 1 C-4.34 1.33 -3.68 1.66 -3 2 C-3 3.65 -3 5.3 -3 7 C-3.66 7 -4.32 7 -5 7 C-5.33 7.66 -5.66 8.32 -6 9 C-6 8.01 -6 7.02 -6 6 C-6.66 5.67 -7.32 5.34 -8 5 C-7.01 3.68 -6.02 2.36 -5 1 Z " fill="#1E282F" transform="translate(90,322)"/>
<path d="M0 0 C2.50600314 2.50600314 2.97054791 4.18594425 3.09765625 7.69921875 C3.08605469 8.68535156 3.07445312 9.67148438 3.0625 10.6875 C3.05347656 11.68136719 3.04445313 12.67523438 3.03515625 13.69921875 C3.02355469 14.45847656 3.01195312 15.21773437 3 16 C2.67 16 2.34 16 2 16 C0.80911014 10.61972975 -0.2919519 5.54708616 0 0 Z " fill="#1E2328" transform="translate(350,92)"/>
<path d="M0 0 C2.31 0.33 4.62 0.66 7 1 C7 1.99 7 2.98 7 4 C4.125 4.125 4.125 4.125 1 4 C0.34 3.34 -0.32 2.68 -1 2 C-0.67 1.34 -0.34 0.68 0 0 Z " fill="#2D353C" transform="translate(190,229)"/>
<path d="M0 0 C5.75 0.75 5.75 0.75 8 3 C7.01 4.485 7.01 4.485 6 6 C4.68 5.67 3.36 5.34 2 5 C2.66 4.67 3.32 4.34 4 4 C1.525 3.01 1.525 3.01 -1 2 C-0.67 1.34 -0.34 0.68 0 0 Z " fill="#2E3842" transform="translate(200,129)"/>
<path d="M0 0 C0 0.33 0 0.66 0 1 C-3.31114834 2.12880057 -6.58978257 3.21302675 -10 4 C-10 3.34 -10 2.68 -10 2 C-11.32 1.67 -12.64 1.34 -14 1 C-8.83955235 -0.512545 -5.34001821 -1.33500455 0 0 Z " fill="#303740" transform="translate(155,44)"/>
<path d="M0 0 C-0.33 0.66 -0.66 1.32 -1 2 C-2.33076989 2.34342449 -3.66431979 2.67619874 -5 3 C-5.66 3.66 -6.32 4.32 -7 5 C-7 4.01 -7 3.02 -7 2 C-7.99 1.67 -8.98 1.34 -10 1 C-10 0.67 -10 0.34 -10 0 C-6.33694766 -0.74926071 -3.57644848 -1.2380014 0 0 Z " fill="#313A41" transform="translate(268,11)"/>
<path d="M0 0 C-2.55068845 2.35448165 -3.71017358 2.98327924 -7.25 3.1875 C-8.1575 3.125625 -9.065 3.06375 -10 3 C-10 2.34 -10 1.68 -10 1 C-6.78548731 -0.60725635 -3.56387464 -0.05748185 0 0 Z " fill="#1D272F" transform="translate(103,340)"/>
<path d="M0 0 C1.98 0 3.96 0 6 0 C4.35 1.98 2.7 3.96 1 6 C-0.0625 4.125 -0.0625 4.125 -1 2 C-0.67 1.34 -0.34 0.68 0 0 Z " fill="#363B3F" transform="translate(322,265)"/>
<path d="M0 0 C0.33 0 0.66 0 1 0 C1 2.64 1 5.28 1 8 C-0.875 8.625 -0.875 8.625 -3 9 C-3.66 8.34 -4.32 7.68 -5 7 C-3.35 6.34 -1.7 5.68 0 5 C0 3.35 0 1.7 0 0 Z " fill="#2E363D" transform="translate(232,233)"/>
<path d="M0 0 C2.64 0 5.28 0 8 0 C8 0.66 8 1.32 8 2 C8.66 2.33 9.32 2.66 10 3 C7.25 3.75 7.25 3.75 4 4 C1.625 2.0625 1.625 2.0625 0 0 Z " fill="#2E353C" transform="translate(143,100)"/>
<path d="M0 0 C0.99 0.33 1.98 0.66 3 1 C3 5 3 5 1.5 6.75 C1.005 7.1625 0.51 7.575 0 8 C-0.66 7.67 -1.32 7.34 -2 7 C-2 6.01 -2 5.02 -2 4 C-1.34 4 -0.68 4 0 4 C0 2.68 0 1.36 0 0 Z " fill="#303A43" transform="translate(91,66)"/>
<path d="M0 0 C0.66 0.66 1.32 1.32 2 2 C1.01 2.99 0.02 3.98 -1 5 C-1.66 4.67 -2.32 4.34 -3 4 C-5.00800456 4.28112064 -7.01014051 4.61067967 -9 5 C-6.3534665 2.3534665 -3.43778736 1.40058003 0 0 Z " fill="#2E343A" transform="translate(261,324)"/>
<path d="M0 0 C-1.98 0.99 -1.98 0.99 -4 2 C-4 2.66 -4 3.32 -4 4 C-5.32 4.33 -6.64 4.66 -8 5 C-8 3.68 -8 2.36 -8 1 C-5.29120665 -0.35439668 -2.99066732 -0.06501451 0 0 Z " fill="#323A41" transform="translate(122,233)"/>
<path d="M0 0 C0.99 1.32 1.98 2.64 3 4 C2.34 4.66 1.68 5.32 1 6 C0.34 5.67 -0.32 5.34 -1 5 C-1.33 5.66 -1.66 6.32 -2 7 C-2.33 5.35 -2.66 3.7 -3 2 C-2.01 1.34 -1.02 0.68 0 0 Z " fill="#2B353D" transform="translate(105,130)"/>
<path d="M0 0 C0.66 0 1.32 0 2 0 C2.28571429 7.42857143 2.28571429 7.42857143 0 11 C-2 8 -2 8 -1.6875 5.5 C-1.17901328 3.65095738 -0.60642538 1.81927613 0 0 Z " fill="#29343E" transform="translate(18,96)"/>
<path d="M0 0 C3.2542015 2.83430453 4.5206753 4.68607774 5 9 C2.35247996 6.42215154 0.05567935 4.08351902 -2 1 C-1.34 0.67 -0.68 0.34 0 0 Z " fill="#E1E5E5" transform="translate(328,44)"/>
<path d="M0 0 C1.04449911 3.13349732 0.93423645 3.98968256 0 7 C-1.65 6.67 -3.3 6.34 -5 6 C-3.35 4.02 -1.7 2.04 0 0 Z " fill="#333A40" transform="translate(68,339)"/>
<path d="M0 0 C0.66 0.99 1.32 1.98 2 3 C2.99 2.67 3.98 2.34 5 2 C5 2.66 5 3.32 5 4 C1.53846154 7 1.53846154 7 -1 7 C-0.67 4.69 -0.34 2.38 0 0 Z " fill="#21272B" transform="translate(308,276)"/>
<path d="M0 0 C0.66 0 1.32 0 2 0 C2.33 1.32 2.66 2.64 3 4 C2.34 4 1.68 4 1 4 C0.67 2.68 0.34 1.36 0 0 Z M-2 2 C-0.5 3.3125 -0.5 3.3125 1 5 C1 5.99 1 6.98 1 8 C0.01 8.33 -0.98 8.66 -2 9 C-2 6.69 -2 4.38 -2 2 Z " fill="#2B3541" transform="translate(250,140)"/>
<path d="M0 0 C-0.99 0 -1.98 0 -3 0 C-3 0.99 -3 1.98 -3 3 C-4.8125 3.6875 -4.8125 3.6875 -7 4 C-8.75 2.5625 -8.75 2.5625 -10 1 C-3.71428571 -1.42857143 -3.71428571 -1.42857143 0 0 Z " fill="#3B434A" transform="translate(163,123)"/>
<path d="M0 0 C0.66 0.33 1.32 0.66 2 1 C1.67 2.32 1.34 3.64 1 5 C0.34 4.67 -0.32 4.34 -1 4 C-0.67 2.68 -0.34 1.36 0 0 Z M-5 1 C-3 2.375 -3 2.375 -1 4 C-1 4.66 -1 5.32 -1 6 C-1.99 5.67 -2.98 5.34 -4 5 C-4.6875 2.9375 -4.6875 2.9375 -5 1 Z " fill="#1C252B" transform="translate(298,116)"/>
<path d="M0 0 C5.57142857 5.14285714 5.57142857 5.14285714 6 9 C5.01 9 4.02 9 3 9 C2 6 1 3 0 0 Z " fill="#1F2529" transform="translate(261,109)"/>
<path d="M0 0 C0.66 0.33 1.32 0.66 2 1 C2.59355614 3.64860427 2.74209269 6.29197322 3 9 C0.11749016 6.61879622 -0.61038985 4.70129644 -1 1 C-0.67 0.67 -0.34 0.34 0 0 Z " fill="#2C383B" transform="translate(36,256)"/>
<path d="M0 0 C1.32 1.32 2.64 2.64 4 4 C3.67 4.99 3.34 5.98 3 7 C1.68 5.68 0.36 4.36 -1 3 C-1.33 3.66 -1.66 4.32 -2 5 C-2.33 4.01 -2.66 3.02 -3 2 C-2.01 1.34 -1.02 0.68 0 0 Z " fill="#2F373F" transform="translate(217,140)"/>
<path d="M0 0 C0.33 0 0.66 0 1 0 C0.38461538 6.52307692 0.38461538 6.52307692 -1.5625 8.9375 C-2.036875 9.288125 -2.51125 9.63875 -3 10 C-3.3648363 5.74357648 -2.47460354 3.46444495 0 0 Z " fill="#191F25" transform="translate(282,302)"/>
<path d="M0 0 C1.25541557 3.76624671 0.37061958 5.37188934 -1 9 C-1.33 8.34 -1.66 7.68 -2 7 C-2.66 6.67 -3.32 6.34 -4 6 C-2.68 4.02 -1.36 2.04 0 0 Z " fill="#E5EBEE" transform="translate(254,287)"/>
<path d="M0 0 C0 0.66 0 1.32 0 2 C0.66 2.33 1.32 2.66 2 3 C-1.73487777 2.5020163 -3.81237635 2.12508244 -7 0 C-3.86650268 -1.04449911 -3.01031744 -0.93423645 0 0 Z " fill="#1E2327" transform="translate(223,236)"/>
<path d="M0 0 C0.66 0.33 1.32 0.66 2 1 C0.02 1.99 0.02 1.99 -2 3 C-1.34 2.01 -0.68 1.02 0 0 Z M-4 3 C-3.34 3.33 -2.68 3.66 -2 4 C-2.99 5.485 -2.99 5.485 -4 7 C-5.32 6.67 -6.64 6.34 -8 6 C-6.68 5.01 -5.36 4.02 -4 3 Z " fill="#E6EBED" transform="translate(95,70)"/>
<path d="M0 0 C1.32 1.32 2.64 2.64 4 4 C3.67 4.66 3.34 5.32 3 6 C1.68 5.67 0.36 5.34 -1 5 C-0.67 3.35 -0.34 1.7 0 0 Z " fill="#2F393D" transform="translate(339,64)"/>
</svg>
