<?xml version="1.0" encoding="UTF-8"?>
<svg version="1.1" xmlns="http://www.w3.org/2000/svg" width="637" height="468">
<path d="M0 0 C210.21 0 420.42 0 637 0 C637 154.44 637 308.88 637 468 C426.79 468 216.58 468 0 468 C0 313.56 0 159.12 0 0 Z " fill="#FDFDFD" transform="translate(0,0)"/>
<path d="M0 0 C1.44362734 -0.00599839 2.88725151 -0.01280691 4.33087158 -0.02035522 C8.22168375 -0.0378906 12.11240773 -0.04270533 16.00325561 -0.0439868 C18.44322782 -0.04541623 20.88317817 -0.04970072 23.32314491 -0.05498123 C31.86144031 -0.07344133 40.39967359 -0.08165703 48.93798828 -0.08007812 C56.85474847 -0.0788783 64.77123536 -0.09995977 72.68792647 -0.13156545 C79.51977715 -0.15785295 86.35153926 -0.16844021 93.18344003 -0.16716731 C97.2483038 -0.16666126 101.31292437 -0.17214376 105.37773705 -0.19352341 C109.20700255 -0.21311741 113.03579814 -0.21288867 116.86508179 -0.19849014 C118.91112085 -0.19545589 120.95716107 -0.2119295 123.00312805 -0.22937012 C150.553896 -0.04591123 177.21005071 12.94824505 197.32739258 31.29052734 C199.82597469 33.8390811 202.08689977 36.51483485 204.32739258 39.29052734 C205.26131836 40.35980469 205.26131836 40.35980469 206.21411133 41.45068359 C226.09743102 64.84971796 231.65298108 92.90788972 231.62817383 122.79833984 C231.63207235 124.77448617 231.63640935 126.75063166 231.64115906 128.72677612 C231.64858195 132.85352299 231.64835965 136.98018425 231.64306641 141.10693359 C231.63729093 146.34103042 231.65417571 151.57477116 231.67741108 156.80880928 C231.69229731 160.8877256 231.69299989 164.96655921 231.68990135 169.04549789 C231.69040758 170.97239763 231.69551057 172.89930289 231.70571327 174.82617569 C231.85819933 207.65770918 223.75277292 236.44905898 201.32739258 261.29052734 C187.32287353 275.29052734 187.32287353 275.29052734 183.32739258 275.29052734 C183.32242736 274.39905707 183.32242736 274.39905707 183.31736183 273.48957729 C183.23579702 258.96358668 183.14359818 244.43768971 183.03986549 229.91184139 C182.98995003 222.88696867 182.94350662 215.86210639 182.90551758 208.8371582 C182.86879578 202.04841576 182.82202707 195.25979976 182.76932907 188.4711628 C182.75090133 185.89066255 182.73575129 183.3101366 182.72404861 180.72959709 C182.6458228 156.24112915 182.6458228 156.24112915 177.70239258 132.35302734 C177.31651978 131.09425781 177.31651978 131.09425781 176.92285156 129.81005859 C174.46867827 122.1493817 171.18514008 115.08005465 167.29907227 108.04980469 C166.39290235 106.40913625 165.51897507 104.750774 164.64770508 103.09130859 C160.18704581 94.92766184 154.538397 88.15341561 148.32739258 81.29052734 C147.6699707 80.56091797 147.01254883 79.83130859 146.33520508 79.07958984 C128.65833108 60.4923189 105.83239338 48.94232727 81.32739258 42.29052734 C80.57570801 42.08572754 79.82402344 41.88092773 79.04956055 41.66992188 C50.1110809 34.23562031 18.14471997 39.19568084 -8.67260742 51.29052734 C-9.4640918 51.62181641 -10.25557617 51.95310547 -11.07104492 52.29443359 C-40.14545683 65.38274859 -62.95104611 94.38806933 -74.54907227 123.48974609 C-76.18140051 128.02713636 -77.47356335 132.62159654 -78.67260742 137.29052734 C-78.97811523 138.47904297 -79.28362305 139.66755859 -79.59838867 140.89208984 C-81.82726445 150.08224115 -82.81742259 158.85688434 -82.87792969 168.28662109 C-82.89277908 169.73677864 -82.89277908 169.73677864 -82.90792847 171.2162323 C-82.93931811 174.38680641 -82.96421108 177.55739545 -82.98901367 180.72802734 C-83.0096027 182.9362017 -83.03059966 185.14437229 -83.05198669 187.35253906 C-83.1070062 193.1458225 -83.15650371 198.93914032 -83.20483398 204.73248291 C-83.2551965 210.65160152 -83.31080535 216.57067061 -83.3659668 222.48974609 C-83.47330203 234.08996414 -83.57480107 245.69022531 -83.67260742 257.29052734 C-91.60417847 254.64667033 -97.31461953 240.88312005 -101.01635742 233.67333984 C-107.44096018 220.15816942 -110.98947303 206.00127735 -110.94726562 191.04003906 C-110.95237656 190.08062912 -110.95748749 189.12121918 -110.9627533 188.13273621 C-110.97652855 184.99516364 -110.97570104 181.85781386 -110.97338867 178.72021484 C-110.97728343 176.5122164 -110.98161968 174.30421869 -110.9863739 172.09622192 C-110.99381116 167.47834847 -110.99356386 162.86055149 -110.98828125 158.24267578 C-110.98250313 152.36936782 -110.99938996 146.49637691 -111.02262592 140.62312126 C-111.03747184 136.06389583 -111.03822008 131.50474475 -111.0351162 126.94549942 C-111.0356244 124.78249613 -111.04076632 122.61948812 -111.05092812 120.45650864 C-111.18610068 87.65258997 -102.86872609 58.45682588 -79.67260742 34.29052734 C-78.84760742 33.42427734 -78.02260742 32.55802734 -77.17260742 31.66552734 C-76.34760742 30.88177734 -75.52260742 30.09802734 -74.67260742 29.29052734 C-74.06416992 28.69884766 -73.45573242 28.10716797 -72.82885742 27.49755859 C-53.12239551 9.04060061 -26.62056115 -0.0223159 0 0 Z " fill="#222E38" transform="translate(251.672607421875,7.70947265625)"/>
<path d="M0 0 C0.92425781 0.7115625 1.84851563 1.423125 2.80078125 2.15625 C8.52052806 6.67632055 13.46364888 11.30501375 18 17 C18.78117188 17.93328125 19.56234375 18.8665625 20.3671875 19.828125 C27.00322805 27.9229997 31.71214904 36.47725595 36 46 C36.42152344 46.9178125 36.84304688 47.835625 37.27734375 48.78125 C45.72843385 68.42604812 45.30412858 89.95315488 45.265625 110.890625 C45.26697482 113.48842403 45.26891798 116.08622282 45.27142334 118.684021 C45.2743576 124.10350206 45.27032553 129.52291114 45.26074219 134.94238281 C45.24984021 141.17900228 45.25340556 147.41549111 45.264395 153.65210748 C45.27461161 159.69574022 45.27347139 165.73930979 45.26763153 171.78295135 C45.26630355 174.33607756 45.2679127 176.88920714 45.27259064 179.44232941 C45.27770206 183.01405024 45.2698819 186.58552401 45.25878906 190.15722656 C45.26283752 191.1975 45.26688599 192.23777344 45.27105713 193.30957031 C45.18916286 207.63200005 42.0730372 220.14798553 32.21875 230.953125 C22.14203955 240.45166354 9.91155955 243.3150434 -3.49291992 243.22363281 C-4.63224472 243.22404068 -5.77156952 243.22444855 -6.94541931 243.22486877 C-9.41438786 243.22506593 -11.88335959 243.22104086 -14.3523159 243.21326447 C-18.27765215 243.20300164 -22.20267258 243.20845003 -26.12800598 243.21868896 C-37.28745318 243.2470174 -48.44674647 243.25981998 -59.60620117 243.22998047 C-65.77726985 243.21364405 -71.94793977 243.21920361 -78.11896783 243.24777675 C-81.37159782 243.26189305 -84.62322494 243.26198095 -87.87584496 243.24155426 C-102.80285767 243.1518014 -115.89416767 244.03159439 -129.96336555 249.25164223 C-133.13695663 250.41777273 -136.35690767 251.4227348 -139.578125 252.44921875 C-141.80313452 253.19217176 -144.02712895 253.93817308 -146.25 254.6875 C-147.38050781 255.06455078 -148.51101562 255.44160156 -149.67578125 255.83007812 C-155.49608845 257.78039159 -161.26614763 259.80926452 -167 262 C-169.43478523 262.90318574 -171.872178 263.79938281 -174.3125 264.6875 C-175.50488281 265.12449219 -176.69726562 265.56148438 -177.92578125 266.01171875 C-181 267 -181 267 -184 267 C-184.78051758 264.81802368 -184.78051758 264.81802368 -185 262 C-183.2253418 259.57528687 -183.2253418 259.57528687 -180.51171875 256.91162109 C-176.21132823 252.56490429 -172.51618918 248.06384088 -168.9553833 243.09324455 C-158.12214904 228.22498974 -145.23856319 212.81534801 -126.23182392 209.62576938 C-108.11259577 207.07812471 -89.45727463 208.14854173 -71.24873257 209.04376245 C-62.31537139 209.47643858 -53.37888245 209.66754303 -44.4375 209.8515625 C-41.28919568 209.91653602 -38.1409176 209.98250656 -34.99267578 210.05044556 C-34.23070452 210.06677021 -33.46873325 210.08309486 -32.68367195 210.09991419 C-28.18872398 210.20226752 -23.69802407 210.34916315 -19.20595932 210.53972602 C-17.09924522 210.62887933 -14.99236808 210.71015966 -12.88525391 210.78923035 C-10.3257722 210.88864485 -7.76684401 211.00417503 -5.20898438 211.13902283 C1.4887968 211.52106914 1.4887968 211.52106914 7.68310547 209.37857056 C13.10749349 203.80978464 12.29670188 196.88817638 12.29052734 189.57299805 C12.29724457 188.4290004 12.30396179 187.28500275 12.31088257 186.1063385 C12.32987421 182.32475429 12.33378843 178.5433477 12.3359375 174.76171875 C12.34236825 172.12058948 12.34909682 169.47946092 12.35610962 166.83833313 C12.36889124 161.2961004 12.37187608 155.7539154 12.37060547 150.21166992 C12.36940962 143.84745099 12.39040272 137.48357425 12.4220928 131.11944169 C12.44845229 125.62609092 12.45896437 120.13285036 12.45769465 114.63943702 C12.45719 111.37199594 12.46449453 108.10492174 12.48405075 104.83753014 C12.57614469 87.84992952 12.61538254 70.90825388 4.25 55.5625 C3.91000977 54.90983154 3.57001953 54.25716309 3.21972656 53.5847168 C0.12856362 47.84307323 -3.69811024 42.88933269 -8 38 C-8.63164062 37.16726562 -9.26328125 36.33453125 -9.9140625 35.4765625 C-13.58518184 31.11796763 -18.31858201 28.19015984 -23 25 C-24.16015625 24.18982422 -24.16015625 24.18982422 -25.34375 23.36328125 C-37.82741221 15.21897423 -51.87252568 11.82068383 -66.5625 11.8125 C-67.69236328 11.80025391 -68.82222656 11.78800781 -69.98632812 11.77539062 C-80.44698944 11.75732385 -89.73353469 12.9237501 -99.25 17.375 C-99.90484375 17.66632813 -100.5596875 17.95765625 -101.234375 18.2578125 C-109.81711319 22.10045523 -109.81711319 22.10045523 -117 28 C-122.54216867 33 -122.54216867 33 -125 33 C-125.25523437 33.57105469 -125.51046875 34.14210937 -125.7734375 34.73046875 C-127.13455763 37.24897448 -128.75018026 39.15010831 -130.625 41.3125 C-141.32352213 54.52031187 -148.062692 70.581016 -148.20532227 87.65771484 C-148.21522186 88.39986237 -148.22512146 89.14200989 -148.23532104 89.90664673 C-148.26671917 92.3413787 -148.29160697 94.77613014 -148.31640625 97.2109375 C-148.33699455 98.9063058 -148.3579915 100.60166918 -148.37937927 102.29702759 C-148.43440631 106.74554446 -148.4839005 111.19410616 -148.53222656 115.6427002 C-148.58258355 120.18762166 -148.6381953 124.73247854 -148.69335938 129.27734375 C-148.80070383 138.18484057 -148.90220084 147.09239362 -149 156 C-150.07596436 156.52601807 -151.15192871 157.05203613 -152.26049805 157.59399414 C-153.69851625 158.30332258 -155.1364169 159.01288937 -156.57421875 159.72265625 C-157.28026245 160.06703735 -157.98630615 160.41141846 -158.71374512 160.76623535 C-164.36646325 163.56575417 -169.4850978 166.79708272 -174.64453125 170.43359375 C-177 172 -177 172 -180 173 C-180.11670507 160.58517395 -180.20512205 148.17048195 -180.25906086 135.75521564 C-180.28497051 129.98805955 -180.32002135 124.22128329 -180.37719727 118.4543457 C-180.43218999 112.87161301 -180.46155991 107.28924177 -180.47438622 101.70625877 C-180.483507 99.59395864 -180.50131075 97.48167452 -180.52865028 95.36953163 C-180.84494972 69.88102725 -175.40705317 45.7283647 -160 25 C-159.48179687 24.26007813 -158.96359375 23.52015625 -158.4296875 22.7578125 C-140.81035819 -1.41342821 -113.8031302 -17.84411091 -84.296875 -22.49609375 C-55.41658331 -26.31136062 -22.95464337 -18.14839476 0 0 Z " fill="#232E39" transform="translate(370,89)"/>
<path d="M0 0 C0.72574219 0.19335938 1.45148438 0.38671875 2.19921875 0.5859375 C8.64920023 2.60073902 13.73167109 6.90417136 19 11 C19.64066406 11.44988281 20.28132813 11.89976562 20.94140625 12.36328125 C30.19789076 19.30027544 35.72704854 31.2273669 39 42 C39.26553177 42.78530594 39.53106354 43.57061188 39.80464172 44.37971497 C42.32309997 52.41057968 42.38780917 60.18818897 42.29296875 68.51171875 C42.28735947 69.97572897 42.28309568 71.4397449 42.28010559 72.90376282 C42.26876143 76.71947329 42.23938706 80.53483014 42.20599365 84.35040283 C42.17506503 88.25894388 42.16155203 92.1675432 42.14648438 96.07617188 C42.11450487 103.7176075 42.0634385 111.35875382 42 119 C37.84686496 118.38042319 34.31575455 117.3579975 30.40527344 115.82910156 C25.27071412 114.05921084 19.92420368 113.03129554 14.625 111.875 C13.45710938 111.61074219 12.28921875 111.34648437 11.0859375 111.07421875 C9.93609375 110.82027344 8.78625 110.56632812 7.6015625 110.3046875 C6.57369629 110.07765137 5.54583008 109.85061523 4.48681641 109.61669922 C-3.2023092 108.25675444 -10.88241948 107.83143141 -18.6796875 107.76171875 C-19.57253448 107.753647 -20.46538147 107.74557526 -21.38528442 107.73725891 C-23.26595178 107.7235261 -25.14664294 107.71275647 -27.02734375 107.70483398 C-28.90795458 107.69338651 -30.78853482 107.6730514 -32.66894531 107.64331055 C-48.76088706 107.3900167 -63.57065241 109.43333422 -79 114 C-79.09352498 105.93182693 -79.16417604 97.86388801 -79.20724869 89.79530334 C-79.22794279 86.04693171 -79.25591766 82.29893639 -79.30175781 78.55078125 C-79.34587766 74.91971249 -79.36927288 71.28900087 -79.37950897 67.65768433 C-79.39027472 65.6285217 -79.42138881 63.59949868 -79.45318604 61.57055664 C-79.45604835 49.44275842 -77.64633205 36.39636431 -70.8125 26.0625 C-70.42376709 25.44826172 -70.03503418 24.83402344 -69.63452148 24.20117188 C-61.49160202 11.75481702 -50.18423084 3.28975978 -36 -1 C-34.7625 -1.4125 -33.525 -1.825 -32.25 -2.25 C-21.49289427 -4.69179701 -10.42390276 -3.05159397 0 0 Z " fill="#232E3A" transform="translate(321,124)"/>
<path d="M0 0 C3.40901496 2.49120324 5.87655575 4.84353024 8.1875 8.375 C8.67605469 9.10460937 9.16460937 9.83421875 9.66796875 10.5859375 C14.21442591 18.82555781 14.22155372 28.32894819 11.875 37.3125 C8.70652946 46.40527359 2.39884827 52.31370697 -5.796875 57.03515625 C-13.80916014 60.71601374 -23.73820225 60.07421785 -31.9375 57.375 C-41.02815933 53.55719006 -45.87407161 47.39344936 -50.12109375 38.70703125 C-52.65262831 30.90990479 -51.87790107 19.67979218 -49 12 C-47.125 8.75 -47.125 8.75 -45 6 C-44.484375 5.175 -43.96875 4.35 -43.4375 3.5 C-31.4172119 -8.82850062 -13.88576777 -9.02264493 0 0 Z " fill="#242F38" transform="translate(257,400)"/>
<path d="M0 0 C19.14 0 38.28 0 58 0 C58 5.28 58 10.56 58 16 C44.8 16 31.6 16 18 16 C18 22.27 18 28.54 18 35 C29.55 35 41.1 35 53 35 C53 39.95 53 44.9 53 50 C41.45 50 29.9 50 18 50 C18 56.6 18 63.2 18 70 C31.2 70 44.4 70 58 70 C58 74.95 58 79.9 58 85 C38.86 85 19.72 85 0 85 C0 56.95 0 28.9 0 0 Z " fill="#27313A" transform="translate(9,373)"/>
<path d="M0 0 C0.72960937 0.39058594 1.45921875 0.78117187 2.2109375 1.18359375 C8.50463692 4.87408527 11.95286202 9.4051228 15 16 C16 20 16 20 16 35 C1.48 35 -13.04 35 -28 35 C-24.96326053 43.28353759 -24.96326053 43.28353759 -21.9375 46.0625 C-16.08253768 47.931105 -10.21278794 47.86930955 -4.5 45.625 C-2.65901368 44.42835889 -0.82694838 43.21796559 1 42 C5.4853192 42.40775629 9.70194407 43.71058322 14 45 C13.05939271 49.82985989 10.62576003 52.75857053 7 56 C-2.1958233 61.58317843 -10.8569282 63.45809176 -21.57421875 61.5390625 C-30.22757739 58.97174842 -35.93000675 53.81183316 -40.7734375 46.34375 C-43.79291775 40.57404251 -44.33913931 35.50777824 -44.3125 29.125 C-44.32861328 28.36058594 -44.34472656 27.59617187 -44.36132812 26.80859375 C-44.3681371 18.78761868 -41.90030099 12.19568321 -36.94140625 5.89453125 C-27.49964495 -3.31925996 -11.68669798 -6.61511206 0 0 Z " fill="#242F38" transform="translate(584,397)"/>
<path d="M0 0 C5.61 0 11.22 0 17 0 C17 9.57 17 19.14 17 29 C20.3 27.02 23.6 25.04 27 23 C33.97781661 20.67406113 40.46133932 22.02788151 47 25 C52.24764538 28.16838966 54.18518893 31.46630363 56.1862793 37.20166016 C58.07451508 46.01569324 57.3982129 55.21992025 57.25 64.1875 C57.22990589 66.30532167 57.21166027 68.42316173 57.1953125 70.54101562 C57.15154425 75.69446961 57.08267648 80.84702936 57 86 C51.72 86 46.44 86 41 86 C40.9906543 84.78940918 40.98130859 83.57881836 40.97167969 82.33154297 C40.93170052 77.8248259 40.8659196 73.31878578 40.79248047 68.8125 C40.76431679 66.86499755 40.7430794 64.91738178 40.72900391 62.96972656 C40.70751054 60.16412532 40.66082802 57.35988 40.609375 54.5546875 C40.60814636 53.68883026 40.60691772 52.82297302 40.60565186 51.93087769 C40.4718566 46.36429809 39.62630651 43.28386091 36 39 C32.54248509 37.27124255 28.78710724 37.65213746 25 38 C21.21185699 39.39996589 20.27059305 40.48064458 18.39916992 44.07250977 C16.67456717 48.29985395 16.52564941 52.25567829 16.48828125 56.77734375 C16.47033005 57.58869278 16.45237885 58.40004181 16.43388367 59.23597717 C16.38011537 61.80310008 16.34599384 64.3700407 16.3125 66.9375 C16.27929724 68.68817623 16.24480487 70.4388285 16.20898438 72.18945312 C16.12200249 76.45965676 16.06165125 80.72905664 16 85 C10.72 85 5.44 85 0 85 C0 56.95 0 28.9 0 0 Z " fill="#242F38" transform="translate(140,372)"/>
<path d="M0 0 C5.61 0 11.22 0 17 0 C17.33 1.98 17.66 3.96 18 6 C18.45246094 5.566875 18.90492188 5.13375 19.37109375 4.6875 C25.81855506 -0.5777236 31.92246315 -1.05542043 39.94921875 -0.578125 C45.39158978 0.01891778 49.31684275 1.90281102 53 6 C56.21486617 10.80871531 58.12943842 15.75497746 58.11352539 21.56323242 C58.11344986 22.48396042 58.11337433 23.40468842 58.11329651 24.35331726 C58.10813522 25.34402725 58.10297394 26.33473724 58.09765625 27.35546875 C58.0962413 28.37224197 58.09482635 29.3890152 58.09336853 30.43659973 C58.08776707 33.68692964 58.07521432 36.93719088 58.0625 40.1875 C58.05748519 42.38997296 58.05292225 44.59244701 58.04882812 46.79492188 C58.03779716 52.19664107 58.02053154 57.59830889 58 63 C52.39 63 46.78 63 41 63 C40.970271 61.12296387 40.970271 61.12296387 40.93994141 59.20800781 C40.86384707 54.563598 40.77513537 49.91949992 40.68261719 45.27539062 C40.64434331 43.26568762 40.60948764 41.25591649 40.578125 39.24609375 C40.53244009 36.3565232 40.47445113 33.46742104 40.4140625 30.578125 C40.40251129 29.68007141 40.39096008 28.78201782 40.37905884 27.85675049 C40.35918915 27.01618103 40.33931946 26.17561157 40.31884766 25.30957031 C40.30552399 24.57232727 40.29220032 23.83508423 40.2784729 23.07550049 C39.956917 20.67889589 39.24976128 19.06198948 38 17 C33.94008969 14.29625423 29.70971099 14.45333712 25 15 C21.10031146 16.65944193 19.59491993 18.14393951 18 22 C17.6786595 24.05493662 17.6786595 24.05493662 17.68115234 26.21777344 C17.66128265 27.03832214 17.64141296 27.85887085 17.62094116 28.70428467 C17.60361435 30.01855438 17.60361435 30.01855438 17.5859375 31.359375 C17.56657135 32.26375305 17.5472052 33.1681311 17.5272522 34.09991455 C17.46756169 36.98318099 17.42111314 39.86648758 17.375 42.75 C17.33681053 44.70704848 17.29775823 46.66408033 17.2578125 48.62109375 C17.16186875 53.41392711 17.07779873 58.20683915 17 63 C14.35409986 63.02684679 11.70846904 63.04676357 9.0625 63.0625 C8.30775391 63.07087891 7.55300781 63.07925781 6.77539062 63.08789062 C4.85005687 63.09652441 2.92464419 63.05224333 1 63 C0 62 0 62 -0.12025452 59.52598572 C-0.11803391 58.42678299 -0.11581329 57.32758026 -0.11352539 56.19506836 C-0.11344986 54.95385727 -0.11337433 53.71264618 -0.11329651 52.43382263 C-0.10818911 51.0691626 -0.1029731 49.70450298 -0.09765625 48.33984375 C-0.095792 46.95121817 -0.09436813 45.56259193 -0.09336853 44.17396545 C-0.08954387 40.51278885 -0.07971403 36.8516517 -0.06866455 33.19049072 C-0.05844932 29.45707737 -0.05387067 25.72365766 -0.04882812 21.99023438 C-0.0380917 14.66013615 -0.02049534 7.33007862 0 0 Z " fill="#28333C" transform="translate(404,395)"/>
<path d="M0 0 C0.86625 0.37125 1.7325 0.7425 2.625 1.125 C6.93185056 4.52514518 9.55830288 9.27580582 10.43765259 14.69924927 C10.57491124 17.67784903 10.56330155 20.61688376 10.48828125 23.59765625 C10.48120651 24.67252792 10.47413177 25.7473996 10.46684265 26.85484314 C10.43905181 30.25813005 10.37633981 33.65971782 10.3125 37.0625 C10.28739745 39.38213755 10.26458773 41.70180112 10.24414062 44.02148438 C10.18927494 49.68163543 10.1031071 55.34053053 10 61 C4.72 61 -0.56 61 -6 61 C-6.01458252 59.78417236 -6.02916504 58.56834473 -6.04418945 57.31567383 C-6.10225098 52.79600922 -6.1794836 48.27683873 -6.26245117 43.75756836 C-6.29566354 41.80322298 -6.32370695 39.84878253 -6.34643555 37.89428711 C-6.38004933 35.08145718 -6.43236854 32.26949553 -6.48828125 29.45703125 C-6.49467117 28.58601273 -6.5010611 27.7149942 -6.50764465 26.81758118 C-6.62224923 22.06719075 -6.94143961 18.87006362 -10 15 C-12.99258338 12.67243515 -16.23495026 12.57910309 -19.96875 12.68359375 C-23.39601982 13.21745693 -25.43838621 14.74334023 -28 17 C-30.46755636 21.51115034 -30.34408231 26.00771129 -30.4140625 31.01953125 C-30.43342865 31.87810226 -30.4527948 32.73667328 -30.4727478 33.6212616 C-30.53231556 36.35157474 -30.57883734 39.08193057 -30.625 41.8125 C-30.66320079 43.66863773 -30.70225375 45.52475812 -30.7421875 47.38085938 C-30.83959555 51.92048048 -30.91934419 56.4599269 -31 61 C-36.61 61 -42.22 61 -48 61 C-48 40.21 -48 19.42 -48 -2 C-42.39 -2 -36.78 -2 -31 -2 C-30.67 0.31 -30.34 2.62 -30 5 C-29.175 4.236875 -28.35 3.47375 -27.5 2.6875 C-19.16547698 -4.18311382 -9.53140976 -4.94900122 0 0 Z " fill="#232F39" transform="translate(520,397)"/>
<path d="M0 0 C5.28 0 10.56 0 16 0 C16.01458252 1.14476807 16.02916504 2.28953613 16.04418945 3.46899414 C16.10240761 7.73899697 16.17963828 12.00848538 16.26245117 16.27807617 C16.29559026 18.12174088 16.32365613 19.96550436 16.34643555 21.80932617 C16.38018512 24.46836208 16.43250966 27.12650187 16.48828125 29.78515625 C16.49467117 30.60210464 16.5010611 31.41905304 16.50764465 32.26075745 C16.64154412 37.53903952 17.46649608 41.33388432 20 46 C23.73120354 48.48746903 26.68129423 48.51530012 31 48 C34.77464866 46.71804385 36.47559983 45.81653357 38.63598633 42.45263672 C40.3433981 38.13077932 40.47594332 34.48557981 40.51171875 29.8828125 C40.52966995 29.02565643 40.54762115 28.16850037 40.56611633 27.28536987 C40.62001405 24.56529564 40.65404858 21.8453948 40.6875 19.125 C40.72069126 17.27341348 40.75518259 15.42184978 40.79101562 13.5703125 C40.87572852 9.04700052 40.9426372 4.52373814 41 0 C46.28 0 51.56 0 57 0 C57 20.79 57 41.58 57 63 C51.72 63 46.44 63 41 63 C41 61.02 41 59.04 41 57 C40.49210937 57.33773437 39.98421875 57.67546875 39.4609375 58.0234375 C31.85953715 62.94868941 25.16691821 65.36634282 16 64 C9.90765482 61.80813644 5.96683842 58.74619494 2.9375 53 C-0.10942015 46.2338855 -0.13999319 39.5084332 -0.09765625 32.2265625 C-0.0962413 31.3028183 -0.09482635 30.3790741 -0.09336853 29.42733765 C-0.08779609 26.49319138 -0.07524869 23.55912299 -0.0625 20.625 C-0.05748144 18.62890736 -0.05291915 16.63281351 -0.04882812 14.63671875 C-0.03783569 9.75778275 -0.0205901 4.87890455 0 0 Z " fill="#232E37" transform="translate(335,395)"/>
<path d="M0 0 C22.77 0 45.54 0 69 0 C69 5.28 69 10.56 69 16 C60.42 16 51.84 16 43 16 C43 38.77 43 61.54 43 85 C37.72 85 32.44 85 27 85 C27 62.23 27 39.46 27 16 C18.09 16 9.18 16 0 16 C0 10.72 0 5.44 0 0 Z " fill="#232D37" transform="translate(266,373)"/>
<path d="M0 0 C5.74787989 4.12954478 10.08255955 8.53089292 13 15 C13 15.99 13 16.98 13 18 C1.38643014 21.85588881 1.38643014 21.85588881 -3 21 C-4.625 18.6875 -4.625 18.6875 -6 16 C-9.75812215 12.52270456 -12.66431222 12.53821163 -17.59765625 12.7265625 C-20.90293104 13.10277264 -22.55901929 13.70260639 -25 16 C-28.9807287 21.24194968 -29.68213696 26.62025593 -29.453125 33.08984375 C-28.57481972 38.73068372 -25.92234106 42.38118648 -21.625 46 C-17.02300007 47.75314283 -13.4197449 47.50108644 -8.8125 45.875 C-5.52456251 43.68304167 -3.96240487 41.39646997 -2 38 C-0.06213915 38.47770523 1.87527674 38.95721571 3.8125 39.4375 C4.89144531 39.70433594 5.97039062 39.97117187 7.08203125 40.24609375 C9.0740843 40.76077412 11.04811524 41.34937175 13 42 C12.20299334 48.28749702 8.52019146 51.81351395 4 56 C-4.9723123 62.21611179 -13.72487211 63.17661975 -24.5 61.64453125 C-31.96599083 59.6580444 -38.24831792 54.12752312 -42.484375 47.7734375 C-47.14004231 38.76573336 -47.96176353 26.48951375 -45.0234375 16.76953125 C-43.83307296 14.35593935 -42.55106315 12.19583649 -41 10 C-40.4225 9.0925 -39.845 8.185 -39.25 7.25 C-29.04806245 -2.95193755 -13.23085844 -7.16472479 0 0 Z " fill="#252F39" transform="translate(119,397)"/>
<path d="M0 0 C5.61 0 11.22 0 17 0 C17 28.38 17 56.76 17 86 C11.39 86 5.78 86 0 86 C0 57.62 0 29.24 0 0 Z " fill="#27313B" transform="translate(609,372)"/>
<path d="M0 0 C4.94542221 2.47271111 7.54156627 5.39017123 10.1875 10.125 C11.84797651 16.00053225 11.89771676 21.77544142 9.3125 27.375 C6.80452933 31.77728895 3.83799288 34.38733571 -1 36 C-6.3387848 36.63113541 -10.94251268 36.42222406 -15.4921875 33.375 C-19.27419318 29.92612436 -20.72463775 26.11205685 -21.37890625 21.09375 C-21.63330383 14.59430205 -21.02850641 9.25347544 -17 4 C-12.05102702 -0.82826632 -6.56972029 -0.97763695 0 0 Z " fill="#F8F9F9" transform="translate(243,409)"/>
<path d="M0 0 C-0.495 0.45375 -0.99 0.9075 -1.5 1.375 C-3.22609337 2.87635519 -3.22609337 2.87635519 -3 5 C-3 6 -3 7 -3 8 C-3.66 8.66 -4.32 9.32 -5 10 C-4.34 10 -3.68 10 -3 10 C-3 10.99 -3 11.98 -3 13 C-3.66 13 -4.32 13 -5 13 C-5 14.65 -5 16.3 -5 18 C-5.99 17.67 -6.98 17.34 -8 17 C-10.21089945 16.91641042 -12.42426078 16.89268236 -14.63671875 16.90234375 C-15.93544922 16.90556641 -17.23417969 16.90878906 -18.57226562 16.91210938 C-19.94401108 16.92046469 -21.31575587 16.92892963 -22.6875 16.9375 C-24.07096195 16.94251665 -25.45442563 16.94707927 -26.83789062 16.95117188 C-30.22530395 16.96297471 -33.61263033 16.97943981 -37 17 C-36.33125995 11.62035782 -35.15957256 9.56534791 -31 6 C-27.26074902 3.50716601 -24.66637665 3.68085211 -20.27734375 3.5390625 C-17.81771627 3.2352476 -17.81771627 3.2352476 -16.69140625 0.9609375 C-16.34916016 -0.00972656 -16.34916016 -0.00972656 -16 -1 C-16.66 -1.99 -17.32 -2.98 -18 -4 C-17.67 -2.68 -17.34 -1.36 -17 0 C-17.66 0 -18.32 0 -19 0 C-19.33 0.66 -19.66 1.32 -20 2 C-22.06640625 2.4140625 -22.06640625 2.4140625 -24.5625 2.625 C-25.38878906 2.69976562 -26.21507812 2.77453125 -27.06640625 2.8515625 C-28.02353516 2.92503906 -28.02353516 2.92503906 -29 3 C-28.67 2.01 -28.34 1.02 -28 0 C-28.33 -0.99 -28.66 -1.98 -29 -3 C-32.93075644 -2.42547254 -32.93075644 -2.42547254 -36 0 C-36.66 -0.99 -37.32 -1.98 -38 -3 C-38.66 -3.33 -39.32 -3.66 -40 -4 C-25.58124594 -12.7643407 -13.19721555 -9.24702858 0 0 Z " fill="#29333D" transform="translate(593,403)"/>
<path d="M0 0 C5.11686825 1.62034161 8.22331165 3.33516358 11 8 C11 9.65 11 11.3 11 13 C1.76 13 -7.48 13 -17 13 C-15.95763751 6.74582506 -15.51143164 5.86694141 -11 2 C-7.26005563 -0.49329624 -4.32742285 -0.50910857 0 0 Z " fill="#F3F5F5" transform="translate(573,407)"/>
<path d="M0 0 C5.61 0 11.22 0 17 0 C17 0.66 17 1.32 17 2 C12.05 2 7.1 2 2 2 C2 21.47 2 40.94 2 61 C6.29 61 10.58 61 15 61 C14.99476318 59.99622314 14.98952637 58.99244629 14.98413086 57.95825195 C14.9659826 54.22160743 14.95453213 50.48496679 14.94506836 46.74829102 C14.94005058 45.13337549 14.93323489 43.51846448 14.92456055 41.90356445 C14.91238286 39.57762535 14.90674605 37.2517465 14.90234375 34.92578125 C14.89718246 34.20787918 14.89202118 33.48997711 14.88670349 32.75032043 C14.88629124 29.03709768 15.11055784 25.61008878 16 22 C16.33 22 16.66 22 17 22 C17 35.53 17 49.06 17 63 C11.39 63 5.78 63 0 63 C0 42.21 0 21.42 0 0 Z " fill="#31393E" transform="translate(472,395)"/>
<path d="M0 0 C0.33 0 0.66 0 1 0 C1.78207676 7.43353196 2.16142346 14.78227836 2.20532227 22.25463867 C2.21522186 23.31938416 2.22512146 24.38412964 2.23532104 25.48114014 C2.26661717 28.96006129 2.29156581 32.43899604 2.31640625 35.91796875 C2.3370034 38.34605745 2.35800055 40.77414279 2.37937927 43.20222473 C2.43431499 49.56264506 2.48384882 55.9230962 2.53222656 62.28356934 C2.58265095 68.78607901 2.63822724 75.28854447 2.69335938 81.79101562 C2.80059185 94.52730566 2.90228814 107.26363355 3 120 C4.485 119.505 4.485 119.505 6 119 C6 119.66 6 120.32 6 121 C2.53846154 124 2.53846154 124 0 124 C0 83.08 0 42.16 0 0 Z " fill="#111B20" transform="translate(435,159)"/>
<path d="M0 0 C0.33 0 0.66 0 1 0 C1.33 6.6 1.66 13.2 2 20 C2.33 20 2.66 20 3 20 C3.33 42.44 3.66 64.88 4 88 C6.31 88 8.62 88 11 88 C11.99 88.66 12.98 89.32 14 90 C12.23174858 91.14981374 10.46030479 92.29471922 8.6875 93.4375 C7.70136719 94.07558594 6.71523437 94.71367187 5.69921875 95.37109375 C3 97 3 97 0 98 C0 65.66 0 33.32 0 0 Z " fill="#383C43" transform="translate(190,164)"/>
<path d="M0 0 C7.62951555 -0.34855655 13.92444501 -0.0017506 21 3 C20.01 3.495 20.01 3.495 19 4 C19.66 4.33 20.32 4.66 21 5 C20.51149865 10.90058204 19.66776668 15.66446664 17 21 C16.113125 20.21625 15.22625 19.4325 14.3125 18.625 C11.69279481 16.42843009 9.28284399 15.06209659 6 14 C6 13.67 6 13.34 6 13 C7.98 12.67 9.96 12.34 12 12 C11.2575 11.38125 11.2575 11.38125 10.5 10.75 C8.3705646 8.2656587 9 6.12961353 9 3 C9.66 3 10.32 3 11 3 C11 2.34 11 1.68 11 1 C7.37 1 3.74 1 0 1 C0 0.67 0 0.34 0 0 Z " fill="#2B343E" transform="translate(98,394)"/>
<path d="M0 0 C2.10483746 3.15725619 2.2472059 3.87374611 2.22705078 7.47143555 C2.22689972 8.37214279 2.22674866 9.27285004 2.22659302 10.20085144 C2.21627045 11.16968765 2.20594788 12.13852386 2.1953125 13.13671875 C2.1924826 14.13129593 2.18965271 15.12587311 2.18673706 16.15058899 C2.17553489 19.3296813 2.15043014 22.50849272 2.125 25.6875 C2.11497025 27.84179281 2.10584439 29.99609003 2.09765625 32.15039062 C2.07559541 37.43370211 2.04106521 42.71680342 2 48 C-3.28 48 -8.56 48 -14 48 C-14 34.14 -14 20.28 -14 6 C-11.44218478 9.83672283 -11.74693544 12.94535987 -11.8046875 17.38671875 C-11.8075174 18.20372757 -11.81034729 19.02073639 -11.81326294 19.86250305 C-11.82445459 22.47098459 -11.8495571 25.0791223 -11.875 27.6875 C-11.88503112 29.45637525 -11.89415674 31.22525588 -11.90234375 32.99414062 C-11.92439058 37.32955949 -11.9589133 41.66472145 -12 46 C-7.71 46 -3.42 46 1 46 C0.67 30.82 0.34 15.64 0 0 Z " fill="#1E2429" transform="translate(528,410)"/>
<path d="M0 0 C0.33 0 0.66 0 1 0 C1 2.31 1 4.62 1 7 C-13.85 7 -28.7 7 -44 7 C-43.67 6.01 -43.34 5.02 -43 4 C-29.14 4.33 -15.28 4.66 -1 5 C-0.67 3.35 -0.34 1.7 0 0 Z " fill="#31363B" transform="translate(599,425)"/>
<path d="M0 0 C3.37830553 1.44784523 5.64961028 3.16332276 8 6 C8.38505302 7.65548273 8.72552221 9.32263575 9 11 C-1.37357631 14.44419134 -1.37357631 14.44419134 -7 14 C-7 13.34 -7 12.68 -7 12 C-4.35261084 10.5393715 -3.10551666 10 0 10 C-0.185625 8.72125 -0.37125 7.4425 -0.5625 6.125 C-1.125 2.25 -1.125 2.25 0 0 Z " fill="#282E36" transform="translate(123,404)"/>
<path d="M0 0 C2.51224302 2.51224302 2.3726023 3.64697458 2.66796875 7.13671875 C2.7570752 8.18287354 2.84618164 9.22902832 2.93798828 10.30688477 C3.02032715 11.42248779 3.10266602 12.53809082 3.1875 13.6875 C3.27499512 14.81406006 3.36249023 15.94062012 3.45263672 17.10131836 C4.042989 25.52379826 4.00875402 33.61643615 3 42 C6.63 42 10.26 42 14 42 C14 42.33 14 42.66 14 43 C9.71 43 5.42 43 1 43 C0.67 28.81 0.34 14.62 0 0 Z " fill="#1C2227" transform="translate(180,414)"/>
<path d="M0 0 C4.20846271 0.48935613 8.01772477 1.57775885 12 3 C12 3.66 12 4.32 12 5 C10.68 5 9.36 5 8 5 C8 5.66 8 6.32 8 7 C6.02 7.99 4.04 8.98 2 10 C-0.13262124 6.80106814 -0.59021548 4.77001757 -1 1 C-0.67 0.67 -0.34 0.34 0 0 Z " fill="#232B32" transform="translate(585,439)"/>
<path d="M0 0 C2.33301986 0.03824623 4.66711508 0.04574284 7 0 C6.67 1.32 6.34 2.64 6 4 C5.34 4 4.68 4 4 4 C4.33 5.65 4.66 7.3 5 9 C3.35 8.67 1.7 8.34 0 8 C-0.33 6.68 -0.66 5.36 -1 4 C-1.66 4 -2.32 4 -3 4 C-3 3.34 -3 2.68 -3 2 C-4.98 2 -6.96 2 -9 2 C-6.9541231 -2.09175381 -3.75067984 -0.76718451 0 0 Z " fill="#2C3640" transform="translate(99,396)"/>
<path d="M0 0 C3.22159321 0.29968309 4.48714984 0.88666094 6.6875 3.25 C6.9375 5.9375 6.9375 5.9375 6.6875 8.25 C7.6775 8.58 8.6675 8.91 9.6875 9.25 C6.36442308 13.18846154 6.36442308 13.18846154 2.9375 13.5 C2.195 13.4175 1.4525 13.335 0.6875 13.25 C1.1825 12.486875 1.6775 11.72375 2.1875 10.9375 C3.93118308 8.32636249 3.93118308 8.32636249 3.6875 5.25 C4.0175 4.59 4.3475 3.93 4.6875 3.25 C2.3775 3.58 0.0675 3.91 -2.3125 4.25 C-2.6425 3.26 -2.9725 2.27 -3.3125 1.25 C-2.3125 0.25 -2.3125 0.25 0 0 Z " fill="#222A32" transform="translate(578.3125,443.75)"/>
<path d="M0 0 C6.16802119 -0.52493797 10.6070171 0.9904739 16 4 C16.66 4.66 17.32 5.32 18 6 C15.36 6.66 12.72 7.32 10 8 C9.34 7.01 8.68 6.02 8 5 C5.43717258 4.27034634 5.43717258 4.27034634 3 4 C2.67 3.01 2.34 2.02 2 1 C1.34 0.67 0.68 0.34 0 0 Z " fill="#273037" transform="translate(406,16)"/>
<path d="M0 0 C0.99 0.33 1.98 0.66 3 1 C2.42415568 3.38564077 1.77772405 5.66682784 1 8 C0.84677641 10.58330229 0.74293111 13.14492239 0.68359375 15.73046875 C0.66281265 16.48088943 0.64203156 17.23131012 0.62062073 18.00447083 C0.55530074 20.39872184 0.49632208 22.79308139 0.4375 25.1875 C0.39429807 26.81186013 0.35068324 28.43620933 0.30664062 30.06054688 C0.19963737 34.04025371 0.09832063 38.02006958 0 42 C-0.33 42 -0.66 42 -1 42 C-1.0247366 36.66146176 -1.0428774 31.32295697 -1.05493164 25.984375 C-1.05995741 24.16861388 -1.06677903 22.3528568 -1.07543945 20.53710938 C-1.08758189 17.9257711 -1.09324591 15.31448638 -1.09765625 12.703125 C-1.10281754 11.89256653 -1.10797882 11.08200806 -1.11329651 10.24688721 C-1.11365296 6.6579583 -0.97045947 3.45259214 0 0 Z " fill="#2C363E" transform="translate(487,414)"/>
<path d="M0 0 C2.97 0.495 2.97 0.495 6 1 C3.702779 2.74271938 1.40133271 4.39911152 -1 6 C-1 6.99 -1 7.98 -1 9 C-1.875 11.04296875 -1.875 11.04296875 -3 13.1875 C-3.37125 13.90292969 -3.7425 14.61835938 -4.125 15.35546875 C-4.558125 16.16951172 -4.558125 16.16951172 -5 17 C-5.33 17 -5.66 17 -6 17 C-6 15.35 -6 13.7 -6 12 C-5.34 12 -4.68 12 -4 12 C-4.165 11.236875 -4.33 10.47375 -4.5 9.6875 C-5 7 -5 7 -5 4 C-4.01 4 -3.02 4 -2 4 C-1.34 2.68 -0.68 1.36 0 0 Z " fill="#222B35" transform="translate(425,404)"/>
<path d="M0 0 C2.31 0.33 4.62 0.66 7 1 C7.33 1.99 7.66 2.98 8 4 C3.545 5.485 3.545 5.485 -1 7 C-1 6.34 -1 5.68 -1 5 C-2.65 5.66 -4.3 6.32 -6 7 C-4.95125002 4.37812506 -4.35068687 3.20628639 -1.875 1.75 C-1.25625 1.5025 -0.6375 1.255 0 1 C0 0.67 0 0.34 0 0 Z " fill="#2C343C" transform="translate(247,50)"/>
<path d="M0 0 C0.66666667 2.66666667 1.33333333 5.33333333 2 8 C2.33 7.34 2.66 6.68 3 6 C2.36610765 9.49844386 0.94822306 11.84086876 -1.0625 14.75 C-1.61035156 15.54921875 -2.15820312 16.3484375 -2.72265625 17.171875 C-3.14417969 17.77515625 -3.56570312 18.3784375 -4 19 C-4.33 18.34 -4.66 17.68 -5 17 C-4.505 15.989375 -4.01 14.97875 -3.5 13.9375 C-1.43848617 9.5159726 -2.12012428 5.6750023 -3 1 C-2.01 0.67 -1.02 0.34 0 0 Z " fill="#1E2830" transform="translate(192,90)"/>
<path d="M0 0 C0.64066406 0.42152344 1.28132812 0.84304688 1.94140625 1.27734375 C7.04720636 4.51127079 10.92130378 6.73570886 17 7 C17 7.33 17 7.66 17 8 C14.36 8 11.72 8 9 8 C8.67 8.99 8.34 9.98 8 11 C7.67 10.34 7.34 9.68 7 9 C5.35 9.66 3.7 10.32 2 11 C2 10.01 2 9.02 2 8 C2.99 7.34 3.98 6.68 5 6 C4.175 5.38125 3.35 4.7625 2.5 4.125 C1.675 3.42375 0.85 2.7225 0 2 C0 1.34 0 0.68 0 0 Z " fill="#19232A" transform="translate(557,439)"/>
<path d="M0 0 C1.3293457 0.00483398 1.3293457 0.00483398 2.68554688 0.00976562 C4.05356445 0.02233398 4.05356445 0.02233398 5.44921875 0.03515625 C6.38056641 0.03966797 7.31191406 0.04417969 8.27148438 0.04882812 C10.55996248 0.06056391 12.84830683 0.07698262 15.13671875 0.09765625 C15.13671875 0.42765625 15.13671875 0.75765625 15.13671875 1.09765625 C6.72171875 1.59265625 6.72171875 1.59265625 -1.86328125 2.09765625 C-2.52328125 3.41765625 -3.18328125 4.73765625 -3.86328125 6.09765625 C-6.83328125 5.60265625 -6.83328125 5.60265625 -9.86328125 5.09765625 C-9.86328125 3.76432292 -9.86328125 2.43098958 -9.86328125 1.09765625 C-6.51236354 0.34402573 -3.43218313 -0.02214312 0 0 Z " fill="#4A4F56" transform="translate(294.86328125,65.90234375)"/>
<path d="M0 0 C0.99 0.33 1.98 0.66 3 1 C3.875 2.8125 3.875 2.8125 4 5 C2.89453125 7.12109375 2.89453125 7.12109375 1 9 C-1.91796875 9.390625 -1.91796875 9.390625 -5.1875 9.25 C-6.27417969 9.21390625 -7.36085938 9.1778125 -8.48046875 9.140625 C-9.72763672 9.07101562 -9.72763672 9.07101562 -11 9 C-7.74469192 7.31573191 -4.49529294 6.11213866 -1 5 C-1.33 3.68 -1.66 2.36 -2 1 C-1.34 0.67 -0.68 0.34 0 0 Z " fill="#1B252F" transform="translate(575,398)"/>
<path d="M0 0 C0 3.42085146 -0.78105603 5.81720186 -2 9 C-2.66 9.66 -3.32 10.32 -4 11 C-4.33 10.01 -4.66 9.02 -5 8 C-5.66 7.67 -6.32 7.34 -7 7 C-7 4 -7 4 -5 2 C-3.35008418 1.29289322 -1.68437744 0.62056011 0 0 Z M-1 6 C1 7 1 7 1 7 Z " fill="#2A343C" transform="translate(169,50)"/>
<path d="M0 0 C1 3 1 3 0 6 C-0.07029121 8.57265818 -0.09370832 11.11641431 -0.0625 13.6875 C-0.05798828 14.38939453 -0.05347656 15.09128906 -0.04882812 15.81445312 C-0.03706927 17.54300538 -0.01913454 19.27151365 0 21 C-0.99 20.67 -1.98 20.34 -3 20 C-3.05451714 17.95863605 -3.09302485 15.91684144 -3.125 13.875 C-3.14820312 12.73804688 -3.17140625 11.60109375 -3.1953125 10.4296875 C-2.99207867 6.86090138 -2.66281067 2.66281067 0 0 Z " fill="#1B2328" transform="translate(90,415)"/>
<path d="M0 0 C2.64465038 3.1254959 3.84414715 6.08788267 5 10 C4.34 10 3.68 10 3 10 C2.67 10.66 2.34 11.32 2 12 C1.34 12 0.68 12 0 12 C-0.92844389 7.66726186 -0.92844389 4.33273814 0 0 Z " fill="#2D353C" transform="translate(400,124)"/>
<path d="M0 0 C0.33 0.66 0.66 1.32 1 2 C1.99 1.67 2.98 1.34 4 1 C6.1875 1.9375 6.1875 1.9375 8 3 C7 6 7 6 5.25 6.875 C2.04168743 7.05323959 0.49406454 5.93982797 -2 4 C-2 3.01 -2 2.02 -2 1 C-1.34 0.67 -0.68 0.34 0 0 Z " fill="#30383F" transform="translate(221,450)"/>
<path d="M0 0 C0.99 0.33 1.98 0.66 3 1 C2.690625 1.598125 2.38125 2.19625 2.0625 2.8125 C0.89790296 5.08956772 0.89790296 5.08956772 0 8 C-2.375 8.625 -2.375 8.625 -5 9 C-5.66 8.34 -6.32 7.68 -7 7 C-4.69 4.69 -2.38 2.38 0 0 Z " fill="#2E343B" transform="translate(264,134)"/>
<path d="M0 0 C1.17755859 0.11408203 1.17755859 0.11408203 2.37890625 0.23046875 C4.4375 0.8125 4.4375 0.8125 6.4375 3.8125 C3.9375 5.0625 3.9375 5.0625 0.4375 5.8125 C-2.43706013 4.81310096 -4.97416594 3.40228894 -7.5625 1.8125 C-4.29333718 -0.36694188 -3.69969614 -0.42055854 0 0 Z " fill="#2F383F" transform="translate(341.5625,105.1875)"/>
<path d="M0 0 C2.475 0.99 2.475 0.99 5 2 C5 5.27275026 4.70074844 7.846632 4 11 C1.5 8.6875 1.5 8.6875 -1 6 C-1 5.01 -1 4.02 -1 3 C0.32 3.33 1.64 3.66 3 4 C2.67 3.67 2.34 3.34 2 3 C1.34 2.01 0.68 1.02 0 0 Z " fill="#2F343F" transform="translate(214,442)"/>
<path d="M0 0 C0.57234375 0.37898438 1.1446875 0.75796875 1.734375 1.1484375 C1.734375 1.8084375 1.734375 2.4684375 1.734375 3.1484375 C0.785625 3.2515625 -0.163125 3.3546875 -1.140625 3.4609375 C-4.55670001 3.83383045 -4.55670001 3.83383045 -6.265625 7.1484375 C-7.585625 6.1584375 -8.905625 5.1684375 -10.265625 4.1484375 C-9.0293082 3.25420836 -7.77590938 2.38355859 -6.515625 1.5234375 C-5.81953125 1.03617187 -5.1234375 0.54890625 -4.40625 0.046875 C-2.265625 -0.8515625 -2.265625 -0.8515625 0 0 Z " fill="#2C353C" transform="translate(225.265625,397.8515625)"/>
<path d="M0 0 C1.49080078 0.02707031 1.49080078 0.02707031 3.01171875 0.0546875 C3.77097656 0.07789063 4.53023437 0.10109375 5.3125 0.125 C5.3125 0.785 5.3125 1.445 5.3125 2.125 C4.6525 2.125 3.9925 2.125 3.3125 2.125 C2.9825 3.115 2.6525 4.105 2.3125 5.125 C1.3225 4.465 0.3325 3.805 -0.6875 3.125 C-0.0275 2.795 0.6325 2.465 1.3125 2.125 C-1.9875 2.125 -5.2875 2.125 -8.6875 2.125 C-5.26655758 -0.15562828 -4.00562778 -0.09425007 0 0 Z M-0.6875 5.125 C0.3025 5.455 1.2925 5.785 2.3125 6.125 C2.3125 7.115 2.3125 8.105 2.3125 9.125 C0.6625 9.125 -0.9875 9.125 -2.6875 9.125 C-2.0275 8.795 -1.3675 8.465 -0.6875 8.125 C-0.6875 7.135 -0.6875 6.145 -0.6875 5.125 Z " fill="#161F27" transform="translate(103.6875,394.875)"/>
<path d="M0 0 C0.66 0 1.32 0 2 0 C3.22517308 5.66642551 3.09228867 11.23708518 3 17 C2.67 17 2.34 17 2 17 C2 15.35 2 13.7 2 12 C1.34 11.67 0.68 11.34 0 11 C-0.44921875 9.00390625 -0.44921875 9.00390625 -0.6875 6.5625 C-0.77386719 5.75941406 -0.86023438 4.95632812 -0.94921875 4.12890625 C-1 2 -1 2 0 0 Z " fill="#30383F" transform="translate(475,82)"/>
<path d="M0 0 C1.11375 0.495 1.11375 0.495 2.25 1 C7.5121552 2.40324139 12.5857837 2.15769562 18 2 C15.44140949 4.55859051 14.1165285 4.37012943 10.5625 4.625 C9.59441406 4.69976562 8.62632813 4.77453125 7.62890625 4.8515625 C5.75493674 4.95737356 3.87695437 5 2 5 C0 1.125 0 1.125 0 0 Z " fill="#1A2228" transform="translate(94,442)"/>
<path d="M0 0 C0.66 0.66 1.32 1.32 2 2 C0.02 2.99 0.02 2.99 -2 4 C-2 4.66 -2 5.32 -2 6 C-0.68 5.34 0.64 4.68 2 4 C2 5.32 2 6.64 2 8 C-2.625 10.125 -2.625 10.125 -6 9 C-4.52307692 4.32307692 -4.52307692 4.32307692 -1.875 2.6875 C-1.25625 2.460625 -0.6375 2.23375 0 2 C0 1.34 0 0.68 0 0 Z " fill="#33373F" transform="translate(192,346)"/>
<path d="M0 0 C0.66 0.33 1.32 0.66 2 1 C1.01 2.32 0.02 3.64 -1 5 C-0.34 4.67 0.32 4.34 1 4 C0.67 4.99 0.34 5.98 0 7 C-3.4375 8.125 -3.4375 8.125 -7 9 C-7.99 9.495 -7.99 9.495 -9 10 C-7.61811547 6.78956118 -6.07578097 4.95063635 -3.375 2.75 C-2.74335938 2.22921875 -2.11171875 1.7084375 -1.4609375 1.171875 C-0.73777344 0.59179688 -0.73777344 0.59179688 0 0 Z " fill="#20262D" transform="translate(184,31)"/>
<path d="M0 0 C1.32 0 2.64 0 4 0 C4 0.66 4 1.32 4 2 C4.66 2 5.32 2 6 2 C6.33 3.32 6.66 4.64 7 6 C7.66 6 8.32 6 9 6 C8.67 7.32 8.34 8.64 8 10 C6.02 8.35 4.04 6.7 2 5 C2.33 4.34 2.66 3.68 3 3 C2.01 2.01 1.02 1.02 0 0 Z M7 3 C7.66 3 8.32 3 9 3 C8.67 3.66 8.34 4.32 8 5 C7.67 4.34 7.34 3.68 7 3 Z " fill="#30373E" transform="translate(387,74)"/>
<path d="M0 0 C0.66 0 1.32 0 2 0 C3.13480527 3.60993172 3.10015767 6.9842327 3.0625 10.75 C3.05347656 11.92046875 3.04445313 13.0909375 3.03515625 14.296875 C3.02355469 15.18890625 3.01195312 16.0809375 3 17 C2.67 17 2.34 17 2 17 C1.87625 15.88625 1.7525 14.7725 1.625 13.625 C1.3534187 9.96896323 1.3534187 9.96896323 -1 8 C-0.96712417 5.27130593 -0.43602229 2.7033382 0 0 Z " fill="#3A4045" transform="translate(267,415)"/>
<path d="M0 0 C5.61 0 11.22 0 17 0 C16.67 0.66 16.34 1.32 16 2 C14.68 2 13.36 2 12 2 C12 2.66 12 3.32 12 4 C10.3745692 3.85904936 8.74965949 3.71207913 7.125 3.5625 C6.22007812 3.48128906 5.31515625 3.40007812 4.3828125 3.31640625 C2 3 2 3 0 2 C0 1.34 0 0.68 0 0 Z " fill="#1B232A" transform="translate(229,444)"/>
<path d="M0 0 C5.40694067 0.43255525 8.75366122 1.58221513 13 5 C13 5.66 13 6.32 13 7 C10 7 10 7 7.8125 5 C7.214375 4.34 6.61625 3.68 6 3 C5.67 3.66 5.34 4.32 5 5 C4.67 4.34 4.34 3.68 4 3 C1.98330173 1.86649466 1.98330173 1.86649466 0 1 C0 0.67 0 0.34 0 0 Z " fill="#1C2229" transform="translate(577,396)"/>
<path d="M0 0 C3.33161397 2.98696425 5.34826557 5.82719722 7 10 C6.6875 12.375 6.6875 12.375 6 14 C6 13.01 6 12.02 6 11 C5.01 11.33 4.02 11.66 3 12 C3 10.02 3 8.04 3 6 C2.34 6 1.68 6 1 6 C0.67 4.02 0.34 2.04 0 0 Z " fill="#3B4044" transform="translate(523,399)"/>
<path d="M0 0 C5.40049736 0.31767632 7.52337065 3.19996327 11 7 C10.67 7.99 10.34 8.98 10 10 C8.35 8.02 6.7 6.04 5 4 C4.01 4.66 3.02 5.32 2 6 C1.34 4.02 0.68 2.04 0 0 Z " fill="#1D242A" transform="translate(117,398)"/>
<path d="M0 0 C3.57011026 3.732388 4.10913442 8.0949989 5 13 C4.01 12.67 3.02 12.34 2 12 C2 11.34 2 10.68 2 10 C1.34 9.67 0.68 9.34 0 9 C0 6.03 0 3.06 0 0 Z " fill="#313A3F" transform="translate(405,135)"/>
<path d="M0 0 C0.33 0 0.66 0 1 0 C0.7242265 6.2049038 -0.10640794 10.10160999 -4 15 C-4.90425521 12.49326721 -5.09182674 11.28321301 -4.2578125 8.7109375 C-3.69707031 7.55464844 -3.69707031 7.55464844 -3.125 6.375 C-2.75632812 5.59898437 -2.38765625 4.82296875 -2.0078125 4.0234375 C-1.33957266 2.68177767 -0.6703127 1.3406254 0 0 Z " fill="#20252C" transform="translate(412,297)"/>
<path d="M0 0 C1.32 0.66 2.64 1.32 4 2 C3.34 4.64 2.68 7.28 2 10 C0.68 8.68 -0.64 7.36 -2 6 C-1.34 4.02 -0.68 2.04 0 0 Z " fill="#323A42" transform="translate(202,126)"/>
<path d="M0 0 C2 0.66666667 4 1.33333333 6 2 C6 2.66 6 3.32 6 4 C3.6875 5.6875 3.6875 5.6875 1 7 C0.01 6.67 -0.98 6.34 -2 6 C-2 5.34 -2 4.68 -2 4 C-1.34 4 -0.68 4 0 4 C-0.33 3.01 -0.66 2.02 -1 1 C-0.67 0.67 -0.34 0.34 0 0 Z " fill="#2E3740" transform="translate(219,66)"/>
<path d="M0 0 C2.97 0.495 2.97 0.495 6 1 C6 1.66 6 2.32 6 3 C6.99 3.66 7.98 4.32 9 5 C5.44706507 6.14947895 4.20023331 6.0868937 0.6875 4.5625 C-0.199375 4.046875 -1.08625 3.53125 -2 3 C-1.34 2.01 -0.68 1.02 0 0 Z " fill="#2C333C" transform="translate(269,42)"/>
<path d="M0 0 C0.33 0.99 0.66 1.98 1 3 C-0.65 4.65 -2.3 6.3 -4 8 C-4 7.34 -4 6.68 -4 6 C-4.99 6 -5.98 6 -7 6 C-7.33 6.66 -7.66 7.32 -8 8 C-8 7.01 -8 6.02 -8 5 C-6.68 4.67 -5.36 4.34 -4 4 C-4 3.34 -4 2.68 -4 2 C-2.68 2 -1.36 2 0 2 C0 1.34 0 0.68 0 0 Z " fill="#363D42" transform="translate(597,442)"/>
<path d="M0 0 C0.66 0.268125 1.32 0.53625 2 0.8125 C3.66519519 1.15310811 5.33157466 1.48808396 7 1.8125 C7 2.1425 7 2.4725 7 2.8125 C6.30132812 2.94527344 5.60265625 3.07804687 4.8828125 3.21484375 C3.97273438 3.39144531 3.06265625 3.56804687 2.125 3.75 C0.76761719 4.01103516 0.76761719 4.01103516 -0.6171875 4.27734375 C-2.99956317 4.71213701 -2.99956317 4.71213701 -5 5.8125 C-5.66 5.1525 -6.32 4.4925 -7 3.8125 C-2.57731959 -0.24162371 -2.57731959 -0.24162371 0 0 Z " fill="#2F363D" transform="translate(430,406.1875)"/>
<path d="M0 0 C1 3 1 3 0.00390625 5.04296875 C-0.47175781 5.75066406 -0.94742187 6.45835937 -1.4375 7.1875 C-1.91058594 7.90292969 -2.38367188 8.61835938 -2.87109375 9.35546875 C-3.24363281 9.89816406 -3.61617188 10.44085938 -4 11 C-5.04296875 9.13671875 -5.04296875 9.13671875 -6 7 C-5.3125 4.8125 -5.3125 4.8125 -4 3 C-3.01 2.67 -2.02 2.34 -1 2 C-0.67 1.34 -0.34 0.68 0 0 Z " fill="#1E262B" transform="translate(469,242)"/>
<path d="M0 0 C3.875 1.75 3.875 1.75 5 4 C0.32798795 5.20568053 -4.21496292 5.09382426 -9 5 C-9 4.67 -9 4.34 -9 4 C-6.03 3.34 -3.06 2.68 0 2 C0 1.34 0 0.68 0 0 Z " fill="#2E363D" transform="translate(321,227)"/>
<path d="M0 0 C2.125 0.9375 2.125 0.9375 4 2 C4 2.66 4 3.32 4 4 C4.66 4.66 5.32 5.32 6 6 C5.34 6 4.68 6 4 6 C3.67 6.66 3.34 7.32 3 8 C3 7.01 3 6.02 3 5 C1.35 4.67 -0.3 4.34 -2 4 C-2 3.01 -2 2.02 -2 1 C-1.34 0.67 -0.68 0.34 0 0 Z " fill="#2C333C" transform="translate(244,82)"/>
<path d="M0 0 C1.32 0 2.64 0 4 0 C5.32 2.31 6.64 4.62 8 7 C4.83119306 7 3.56310828 6.7941758 1 5 C0.25 2.375 0.25 2.375 0 0 Z " fill="#2F353C" transform="translate(87,435)"/>
<path d="M0 0 C2.10353495 -0.0810206 4.20795952 -0.13919907 6.3125 -0.1875 C7.48425781 -0.22230469 8.65601563 -0.25710938 9.86328125 -0.29296875 C13 0 13 0 14.91796875 1.51171875 C15.27503906 2.00285156 15.63210938 2.49398438 16 3 C14.35 3.33 12.7 3.66 11 4 C11 3.34 11 2.68 11 2 C7.37 1.67 3.74 1.34 0 1 C0 0.67 0 0.34 0 0 Z " fill="#192027" transform="translate(435,395)"/>
<path d="M0 0 C1.32 0 2.64 0 4 0 C3.67 0.99 3.34 1.98 3 3 C-0.65257704 4.62336757 -3.19362399 5.46399077 -7 4 C-6.67 3.34 -6.34 2.68 -6 2 C-4.34178227 1.62690101 -2.67422986 1.29299023 -1 1 C-0.67 0.67 -0.34 0.34 0 0 Z " fill="#252930" transform="translate(200,348)"/>
<path d="M0 0 C5.57142857 5.14285714 5.57142857 5.14285714 6 9 C5.01 9 4.02 9 3 9 C2.67 8.01 2.34 7.02 2 6 C1.34 6.99 0.68 7.98 0 9 C0 6.03 0 3.06 0 0 Z " fill="#1F272B" transform="translate(389,109)"/>
<path d="M0 0 C2.31 0.66 4.62 1.32 7 2 C7 2.66 7 3.32 7 4 C5.68 4 4.36 4 3 4 C3 4.66 3 5.32 3 6 C2.01 5.67 1.02 5.34 0 5 C-0.33 4.01 -0.66 3.02 -1 2 C-0.67 1.34 -0.34 0.68 0 0 Z " fill="#2C3237" transform="translate(590,440)"/>
<path d="M0 0 C2.31 0.33 4.62 0.66 7 1 C6.01 2.485 6.01 2.485 5 4 C4.01 4 3.02 4 2 4 C0.31201173 5.43750191 0.31201173 5.43750191 -1 7 C-1.33 5.35 -1.66 3.7 -2 2 C-1.34 2 -0.68 2 0 2 C0 1.34 0 0.68 0 0 Z " fill="#2F363F" transform="translate(223,409)"/>
<path d="M0 0 C1.32 0.33 2.64 0.66 4 1 C3.6875 2.9375 3.6875 2.9375 3 5 C2.01 5.33 1.02 5.66 0 6 C-1.20882096 8.00016466 -1.20882096 8.00016466 -2 10 C-2.25 3.375 -2.25 3.375 0 0 Z " fill="#2C353E" transform="translate(89,411)"/>
<path d="M0 0 C-1 2 -1 2 -3.8125 3.0625 C-6.2019167 3.76526962 -8.57406149 4.44016804 -11 5 C-11.66 4.01 -12.32 3.02 -13 2 C-8.49646738 0.24252386 -4.82360189 -0.19294408 0 0 Z " fill="#2D353D" transform="translate(262,329)"/>
<path d="M0 0 C0.66 0 1.32 0 2 0 C1.979375 0.721875 1.95875 1.44375 1.9375 2.1875 C1.99820559 4.91925138 2.39258535 7.34256091 3 10 C2.01 10.33 1.02 10.66 0 11 C-1.125 3.375 -1.125 3.375 0 0 Z M3 2 C3.66 3.32 4.32 4.64 5 6 C4.34 6 3.68 6 3 6 C3 4.68 3 3.36 3 2 Z " fill="#2B3540" transform="translate(376,138)"/>
<path d="M0 0 C1.32 0.33 2.64 0.66 4 1 C3.01 1.33 2.02 1.66 1 2 C1 2.99 1 3.98 1 5 C-2.37097383 6.49821059 -4.20442119 7 -8 7 C-7.67 6.01 -7.34 5.02 -7 4 C-5 3.25 -5 3.25 -3 3 C-2.67 3.33 -2.34 3.66 -2 4 C-1.34 2.68 -0.68 1.36 0 0 Z " fill="#2D353B" transform="translate(268,102)"/>
<path d="M0 0 C0.33 0.66 0.66 1.32 1 2 C0.01 2.495 0.01 2.495 -1 3 C-0.34 3.33 0.32 3.66 1 4 C1 5.32 1 6.64 1 8 C-2.43595166 6.47291037 -5.11912454 4.40072955 -8 2 C-5.36 1.34 -2.72 0.68 0 0 Z " fill="#353E45" transform="translate(332,98)"/>
<path d="M0 0 C2.97 0 5.94 0 9 0 C7.515 1.485 7.515 1.485 6 3 C5.34 3 4.68 3 4 3 C3.67 3.66 3.34 4.32 3 5 C1.68 4.67 0.36 4.34 -1 4 C-0.67 2.68 -0.34 1.36 0 0 Z " fill="#393D42" transform="translate(377,8)"/>
<path d="M0 0 C1.5625 1.25 1.5625 1.25 3 3 C2.6875 5.1875 2.6875 5.1875 2 7 C0.68 7.33 -0.64 7.66 -2 8 C-2.20086443 4.28400809 -2.1519437 3.22791555 0 0 Z " fill="#2B353C" transform="translate(383,101)"/>
<path d="M0 0 C1.01979255 3.64211624 1.72542412 7.22458167 2 11 C0.515625 12.71484375 0.515625 12.71484375 -1 14 C-1.02705729 12.22925083 -1.04642195 10.45838289 -1.0625 8.6875 C-1.07410156 7.70136719 -1.08570313 6.71523437 -1.09765625 5.69921875 C-1 3 -1 3 0 0 Z " fill="#3D4248" transform="translate(144,91)"/>
<path d="M0 0 C4.6138567 1.49271834 7.49459542 3.73360028 11 7 C11.33 7.99 11.66 8.98 12 10 C7.67457535 8.00365016 3.15962035 5.89756057 0.625 1.75 C0.41875 1.1725 0.2125 0.595 0 0 Z " fill="#1B242A" transform="translate(438,32)"/>
<path d="M0 0 C-0.57344937 2.86724686 -0.8614515 3.8614515 -3 6 C-3.99 5.67 -4.98 5.34 -6 5 C-6 5.66 -6 6.32 -6 7 C-6.66 6.67 -7.32 6.34 -8 6 C-3.38461538 0 -3.38461538 0 0 0 Z " fill="#E7EAEA" transform="translate(498,410)"/>
<path d="M0 0 C1.65 0.33 3.3 0.66 5 1 C4.67 2.98 4.34 4.96 4 7 C2.35 6.67 0.7 6.34 -1 6 C-0.67 4.02 -0.34 2.04 0 0 Z " fill="#1C2A34" transform="translate(550,401)"/>
<path d="M0 0 C-0.33 0.66 -0.66 1.32 -1 2 C-1.99 2 -2.98 2 -4 2 C-4 1.34 -4 0.68 -4 0 C-5.423125 0.5259375 -5.423125 0.5259375 -6.875 1.0625 C-10 2 -10 2 -12 1 C-11.67 0.34 -11.34 -0.32 -11 -1 C-6.69246156 -1.97529172 -3.76177542 -2.55800728 0 0 Z " fill="#202830" transform="translate(393,325)"/>
<path d="M0 0 C2.25 0.25 2.25 0.25 4 1 C3.67 2.65 3.34 4.3 3 6 C2.01 5.34 1.02 4.68 0 4 C-0.66 4.66 -1.32 5.32 -2 6 C-2.66 5.34 -3.32 4.68 -4 4 C-2.25 1.9375 -2.25 1.9375 0 0 Z " fill="#2E353B" transform="translate(233,302)"/>
<path d="M0 0 C0.60457031 0.20109375 1.20914063 0.4021875 1.83203125 0.609375 C0.54486478 1.61516089 -0.74785533 2.61384298 -2.04296875 3.609375 C-3.12191406 4.4446875 -3.12191406 4.4446875 -4.22265625 5.296875 C-6.16796875 6.609375 -6.16796875 6.609375 -8.16796875 6.609375 C-6.90005285 2.8056273 -4.41422145 -0.79535522 0 0 Z " fill="#25282E" transform="translate(199.16796875,254.390625)"/>
<path d="M0 0 C1.65 0.33 3.3 0.66 5 1 C4.67 2.32 4.34 3.64 4 5 C1.03 4.505 1.03 4.505 -2 4 C-1.34 2.68 -0.68 1.36 0 0 Z " fill="#23292F" transform="translate(346,233)"/>
<path d="M0 0 C0.66 0.66 1.32 1.32 2 2 C2.99 1.34 3.98 0.68 5 0 C4.50351065 4.46840411 4.31012244 5.68987756 1 9 C0.67 6.03 0.34 3.06 0 0 Z " fill="#21282F" transform="translate(471,229)"/>
<path d="M0 0 C-3.44450737 2.29633824 -5.93812283 2.54016485 -10 3 C-9.6875 1.0625 -9.6875 1.0625 -9 -1 C-5.23375329 -2.25541557 -3.62811066 -1.37061958 0 0 Z " fill="#1F252C" transform="translate(286,100)"/>
<path d="M0 0 C0 3 0 3 0 3 Z M-3 1 C-2.34 1.66 -1.68 2.32 -1 3 C-1.36681658 5.93453261 -1.86437246 6.86437246 -4 9 C-4.625 6.125 -4.625 6.125 -5 3 C-4.34 2.34 -3.68 1.68 -3 1 Z " fill="#21262D" transform="translate(159,63)"/>
<path d="M0 0 C0.66 0.66 1.32 1.32 2 2 C2.99 2 3.98 2 5 2 C4.34 4.64 3.68 7.28 3 10 C0.64551835 7.44931155 0.01672076 6.28982642 -0.1875 2.75 C-0.125625 1.8425 -0.06375 0.935 0 0 Z " fill="#383F48" transform="translate(191,158)"/>
<path d="M0 0 C0.66 0.33 1.32 0.66 2 1 C2 2.98 2 4.96 2 7 C1.01 7.495 1.01 7.495 0 8 C-0.66 8.99 -1.32 9.98 -2 11 C-2.28571429 3.57142857 -2.28571429 3.57142857 0 0 Z " fill="#2E353B" transform="translate(169,148)"/>
<path d="M0 0 C5.15464734 0.48324819 8.81550319 3.18610761 13 6 C12.67 6.66 12.34 7.32 12 8 C4.50243902 5.02926829 4.50243902 5.02926829 2 2 C1.34 1.34 0.68 0.68 0 0 Z " fill="#1A2126" transform="translate(422,22)"/>
<path d="M0 0 C0 0.99 0 1.98 0 3 C-2.8125 4.125 -2.8125 4.125 -6 5 C-6.99 4.34 -7.98 3.68 -9 3 C-2.25 0 -2.25 0 0 0 Z " fill="#353D45" transform="translate(216,14)"/>
<path d="M0 0 C0 3 0 3 -1.3125 4.38671875 C-2.875 5.59114583 -4.4375 6.79557292 -6 8 C-6.66 7.67 -7.32 7.34 -8 7 C-7.3125 5.125 -7.3125 5.125 -6 3 C-3.4375 1.8125 -3.4375 1.8125 -1 1 C-0.67 0.67 -0.34 0.34 0 0 Z " fill="#1F2528" transform="translate(127,446)"/>
<path d="M0 0 C0.33 0.66 0.66 1.32 1 2 C1.66 2.33 2.32 2.66 3 3 C2.67 3.99 2.34 4.98 2 6 C0.35 6 -1.3 6 -3 6 C-3.33 5.01 -3.66 4.02 -4 3 C-2.68 2.01 -1.36 1.02 0 0 Z " fill="#2F373C" transform="translate(583,440)"/>
<path d="M0 0 C2.125 0.9375 2.125 0.9375 4 2 C3.67 2.99 3.34 3.98 3 5 C2.34 4.34 1.68 3.68 1 3 C0.34 4.32 -0.32 5.64 -1 7 C-1.99 6.01 -2.98 5.02 -4 4 C-3.01 4 -2.02 4 -1 4 C-1.33 3.01 -1.66 2.02 -2 1 C-1.34 0.67 -0.68 0.34 0 0 Z " fill="#1B242A" transform="translate(591,404)"/>
<path d="M0 0 C0.33 0.66 0.66 1.32 1 2 C-2.63 2 -6.26 2 -10 2 C-10 1.34 -10 0.68 -10 0 C-6.26840331 -1.24386556 -3.81984796 -0.77811718 0 0 Z " fill="#20272D" transform="translate(507,407)"/>
<path d="M0 0 C0.99 0.66 1.98 1.32 3 2 C1.768606 4.46278801 0.21935077 5.42497687 -2 7 C-2 6.34 -2 5.68 -2 5 C-2.66 4.67 -3.32 4.34 -4 4 C-2.68 2.68 -1.36 1.36 0 0 Z " fill="#30363D" transform="translate(217,318)"/>
<path d="M0 0 C0.33 0.99 0.66 1.98 1 3 C-0.98 3.99 -0.98 3.99 -3 5 C-3 5.66 -3 6.32 -3 7 C-3.66 7 -4.32 7 -5 7 C-4.67 5.02 -4.34 3.04 -4 1 C-2.68 0.67 -1.36 0.34 0 0 Z " fill="#30353B" transform="translate(201,136)"/>
<path d="M0 0 C0.99 0.66 1.98 1.32 3 2 C2 5 2 5 -1 7 C-1.99 6.67 -2.98 6.34 -4 6 C-2.68 4.02 -1.36 2.04 0 0 Z " fill="#32373D" transform="translate(207,118)"/>
<path d="M0 0 C1.11375 0.556875 1.11375 0.556875 2.25 1.125 C-0.3154594 3.6904594 -2.22686668 3.66546087 -5.75 4.125 C-6.08 3.135 -6.41 2.145 -6.75 1.125 C-4.02098495 -0.69434337 -3.21400584 -1.02263822 0 0 Z " fill="#343D44" transform="translate(421.75,19.875)"/>
<path d="M0 0 C0.99 0.33 1.98 0.66 3 1 C0.525 5.455 0.525 5.455 -2 10 C-2.33 10 -2.66 10 -3 10 C-3 8.35 -3 6.7 -3 5 C-2.34 5 -1.68 5 -1 5 C-0.67 3.35 -0.34 1.7 0 0 Z " fill="#1E2429" transform="translate(422,411)"/>
<path d="M0 0 C0.33 0.66 0.66 1.32 1 2 C0.22265625 3.9453125 0.22265625 3.9453125 -0.9375 6.125 C-1.31777344 6.84945313 -1.69804687 7.57390625 -2.08984375 8.3203125 C-2.39019531 8.87460937 -2.69054687 9.42890625 -3 10 C-3.66 9.34 -4.32 8.68 -5 8 C-4.34 7.34 -3.68 6.68 -3 6 C-3 5.01 -3 4.02 -3 3 C-1.5 1.3125 -1.5 1.3125 0 0 Z " fill="#30393E" transform="translate(494,398)"/>
<path d="M0 0 C4.31392226 0.4793247 6.16569547 1.7457985 9 5 C8.34 5 7.68 5 7 5 C6.67 5.66 6.34 6.32 6 7 C5.7525 6.195625 5.505 5.39125 5.25 4.5625 C4.27761141 1.828919 4.27761141 1.828919 1.875 1.1875 C1.25625 1.125625 0.6375 1.06375 0 1 C0 0.67 0 0.34 0 0 Z " fill="#212730" transform="translate(249,397)"/>
<path d="M0 0 C0.33 0.99 0.66 1.98 1 3 C-2.96704289 4.32234763 -6.05432668 4.12733524 -10 3 C-6.59538535 1.23899242 -3.90650339 0 0 0 Z " fill="#2E343A" transform="translate(389,325)"/>
<path d="M0 0 C0.66 0.33 1.32 0.66 2 1 C2 1.66 2 2.32 2 3 C1.01 3.33 0.02 3.66 -1 4 C-1.99 5.485 -1.99 5.485 -3 7 C-3.66 7 -4.32 7 -5 7 C-5.33 7.66 -5.66 8.32 -6 9 C-6 6 -6 6 -4.6875 4.39453125 C-4.130625 3.87246094 -3.57375 3.35039062 -3 2.8125 C-2.443125 2.28269531 -1.88625 1.75289063 -1.3125 1.20703125 C-0.6628125 0.60955078 -0.6628125 0.60955078 0 0 Z " fill="#F2F3F4" transform="translate(455,266)"/>
<path d="M0 0 C6.625 -0.25 6.625 -0.25 10 2 C3.25 3 3.25 3 1 3 C0.67 3.66 0.34 4.32 0 5 C0 3.35 0 1.7 0 0 Z " fill="#2F373F" transform="translate(194,252)"/>
<path d="M0 0 C0.33 0 0.66 0 1 0 C1 3.3 1 6.6 1 10 C0.01 10 -0.98 10 -2 10 C-1.54177532 6.53058454 -1.10868317 3.32604951 0 0 Z " fill="#383E44" transform="translate(246,158)"/>
<path d="M0 0 C3.48832306 2.20927127 4.73058503 4.08597051 6 8 C5.34 8.66 4.68 9.32 4 10 C3.32845067 8.71086513 2.66291141 7.41859796 2 6.125 C1.62875 5.40570313 1.2575 4.68640625 0.875 3.9453125 C0 2 0 2 0 0 Z " fill="#1E2329" transform="translate(421,117)"/>
<path d="M0 0 C0.33 0.66 0.66 1.32 1 2 C1.66 2 2.32 2 3 2 C4.625 4 4.625 4 6 6 C3.36 5.67 0.72 5.34 -2 5 C-2 3.68 -2 2.36 -2 1 C-1.34 0.67 -0.68 0.34 0 0 Z " fill="#2B353C" transform="translate(353,112)"/>
<path d="M0 0 C0.66 0 1.32 0 2 0 C2.25 7.625 2.25 7.625 0 11 C-0.19406478 9.35492782 -0.38007935 7.70890406 -0.5625 6.0625 C-0.66691406 5.14597656 -0.77132812 4.22945313 -0.87890625 3.28515625 C-0.91886719 2.53105469 -0.95882812 1.77695313 -1 1 C-0.67 0.67 -0.34 0.34 0 0 Z M0 3 C1 6 1 6 1 6 Z " fill="#29343D" transform="translate(146,95)"/>
<path d="M0 0 C0.33 0.66 0.66 1.32 1 2 C1.66 2.33 2.32 2.66 3 3 C2.01 3.495 2.01 3.495 1 4 C0.27840576 5.64363134 -0.39351421 7.31050386 -1 9 C-1.66 8.34 -2.32 7.68 -3 7 C-2.67 6.01 -2.34 5.02 -2 4 C-2.33 3.34 -2.66 2.68 -3 2 C-2.01 1.34 -1.02 0.68 0 0 Z " fill="#2C333C" transform="translate(238,86)"/>
<path d="M0 0 C1.33804687 0.04060547 1.33804687 0.04060547 2.703125 0.08203125 C3.37859375 0.11683594 4.0540625 0.15164062 4.75 0.1875 C4.75 0.5175 4.75 0.8475 4.75 1.1875 C-4.66002278 3.48362756 -4.66002278 3.48362756 -9.25 3.1875 C-6.10408067 0.38704377 -4.182936 -0.16511589 0 0 Z " fill="#23282E" transform="translate(284.25,67.8125)"/>
<path d="M0 0 C3 1 6 2 9 3 C7 5 7 5 4 6 C2.62437146 4.71034824 1.29233607 3.37310707 0 2 C0 1.34 0 0.68 0 0 Z " fill="#2E373D" transform="translate(429,27)"/>
<path d="M0 0 C0.99 0 1.98 0 3 0 C4.42944945 2.35438733 5.08661261 3.48032433 4.625 6.25 C4.41875 6.8275 4.2125 7.405 4 8 C0 3.375 0 3.375 0 0 Z " fill="#1F262D" transform="translate(209,440)"/>
<path d="M0 0 C0.99 0.33 1.98 0.66 3 1 C2.67 1.99 2.34 2.98 2 4 C-0.64 4.33 -3.28 4.66 -6 5 C-4.59240479 2.18480957 -2.77416723 1.38708362 0 0 Z " fill="#2C3541" transform="translate(125,411)"/>
<path d="M0 0 C2 0.6875 2 0.6875 4 2.6875 C0.71303767 3.48703138 -0.71023192 3.78408936 -4 2.6875 C-4 2.0275 -4 1.3675 -4 0.6875 C-2 -0.3125 -2 -0.3125 0 0 Z " fill="#1F292F" transform="translate(167,396.3125)"/>
<path d="M0 0 C1.67542976 0.28604898 3.34385343 0.61781233 5 1 C5.33 1.99 5.66 2.98 6 4 C4.02 4.33 2.04 4.66 0 5 C0 4.34 0 3.68 0 3 C-0.66 3 -1.32 3 -2 3 C-1 1 -1 1 0 0 Z " fill="#343A42" transform="translate(204,345)"/>
<path d="M0 0 C0.66 0.33 1.32 0.66 2 1 C1.8125 2.875 1.8125 2.875 1 5 C-1.5625 6.25 -1.5625 6.25 -4 7 C-2.92598892 4.08482708 -2.22189824 2.22189824 0 0 Z " fill="#20272E" transform="translate(214,109)"/>
<path d="M0 0 C2.375 1.0625 2.375 1.0625 5 3 C6.3125 6.6875 6.3125 6.6875 7 10 C3.60582235 6.87378374 1.3937282 4.43458973 0 0 Z " fill="#1D2228" transform="translate(410,99)"/>
<path d="M0 0 C1.258125 -0.04125 2.51625 -0.0825 3.8125 -0.125 C4.52019531 -0.14820313 5.22789062 -0.17140625 5.95703125 -0.1953125 C8 0 8 0 11 2 C10.67 2.66 10.34 3.32 10 4 C6.7 3.01 3.4 2.02 0 1 C0 0.67 0 0.34 0 0 Z " fill="#1F2428" transform="translate(381,9)"/>
<path d="M0 0 C2.09350689 3.4019487 2.17942163 6.05272412 2 10 C0.68 9.34 -0.64 8.68 -2 8 C-1.34 5.36 -0.68 2.72 0 0 Z " fill="#2B323C" transform="translate(210,433)"/>
<path d="M0 0 C4.455 0.99 4.455 0.99 9 2 C7.68 2.99 6.36 3.98 5 5 C2.5 3.625 2.5 3.625 0 2 C0 1.34 0 0.68 0 0 Z " fill="#2D383D" transform="translate(123,437)"/>
<path d="M0 0 C0.33 0 0.66 0 1 0 C1 2.31 1 4.62 1 7 C-0.32 7 -1.64 7 -3 7 C-1.125 1.125 -1.125 1.125 0 0 Z " fill="#31393C" transform="translate(211,407)"/>
<path d="M0 0 C0.66 0.33 1.32 0.66 2 1 C1.01 2.485 1.01 2.485 0 4 C0.66 4.33 1.32 4.66 2 5 C0.68 5.33 -0.64 5.66 -2 6 C-2.66 5.01 -3.32 4.02 -4 3 C-2.68 2.01 -1.36 1.02 0 0 Z " fill="#E7E8E8" transform="translate(97,410)"/>
<path d="M0 0 C0 0.66 0 1.32 0 2 C-4.455 3.485 -4.455 3.485 -9 5 C-8.67 4.01 -8.34 3.02 -8 2 C-5.10441559 0.5522078 -3.25811062 0 0 0 Z " fill="#20282C" transform="translate(504,395)"/>
<path d="M0 0 C0.66 0.33 1.32 0.66 2 1 C2.59355614 3.64860427 2.74209269 6.29197322 3 9 C0.11749016 6.61879622 -0.61038985 4.70129644 -1 1 C-0.67 0.67 -0.34 0.34 0 0 Z " fill="#2C383B" transform="translate(164,256)"/>
<path d="M0 0 C0.33 0 0.66 0 1 0 C1 2.64 1 5.28 1 8 C-0.32 8.33 -1.64 8.66 -3 9 C-2.67 7.68 -2.34 6.36 -2 5 C-1.34 5 -0.68 5 0 5 C0 3.35 0 1.7 0 0 Z " fill="#2F363C" transform="translate(360,233)"/>
<path d="M0 0 C0.66 0.33 1.32 0.66 2 1 C1.25 5.75 1.25 5.75 -1 8 C-1.33 5.69 -1.66 3.38 -2 1 C-1.34 0.67 -0.68 0.34 0 0 Z " fill="#323B3F" transform="translate(145,216)"/>
<path d="M0 0 C1.32 0.66 2.64 1.32 4 2 C3.34 3.65 2.68 5.3 2 7 C0.4375 5.75 0.4375 5.75 -1 4 C-0.6875 1.8125 -0.6875 1.8125 0 0 Z " fill="#1D2731" transform="translate(375,95)"/>
<path d="M0 0 C0.66 0.33 1.32 0.66 2 1 C-1.465 3.97 -1.465 3.97 -5 7 C-5.66 6.34 -6.32 5.68 -7 5 C-4.69 3.35 -2.38 1.7 0 0 Z " fill="#E1E6E8" transform="translate(233,63)"/>
<path d="M0 0 C2.475 0.99 2.475 0.99 5 2 C5 4.64 5 7.28 5 10 C3.33333333 6.66666667 1.66666667 3.33333333 0 0 Z " fill="#23292E" transform="translate(441,410)"/>
<path d="M0 0 C2.00720923 0.28674418 4.0085944 0.61866701 6 1 C6 1.66 6 2.32 6 3 C4.35 3.66 2.7 4.32 1 5 C0.34 3.68 -0.32 2.36 -1 1 C-0.67 0.67 -0.34 0.34 0 0 Z " fill="#23292F" transform="translate(490,408)"/>
<path d="M0 0 C0.66 0 1.32 0 2 0 C1.67 1.65 1.34 3.3 1 5 C-0.32 5.33 -1.64 5.66 -3 6 C-2.42655063 3.13275314 -2.1385485 2.1385485 0 0 Z " fill="#E3EAEC" transform="translate(380,291)"/>
<path d="M0 0 C0.66 0 1.32 0 2 0 C2.33 1.32 2.66 2.64 3 4 C1.68 4.99 0.36 5.98 -1 7 C-0.67 4.69 -0.34 2.38 0 0 Z " fill="#30353A" transform="translate(450,265)"/>
<path d="M0 0 C1.32 0.66 2.64 1.32 4 2 C3.01 2.495 3.01 2.495 2 3 C2 3.66 2 4.32 2 5 C0.35 4.67 -1.3 4.34 -3 4 C-2.01 2.68 -1.02 1.36 0 0 Z " fill="#2F363B" transform="translate(352,235)"/>
<path d="M0 0 C2.3125 0.8125 2.3125 0.8125 3.3125 2.8125 C0.0125 2.8125 -3.2875 2.8125 -6.6875 2.8125 C-2.6875 -0.1875 -2.6875 -0.1875 0 0 Z " fill="#2F3940" transform="translate(283.6875,124.1875)"/>
<path d="M0 0 C1.36125 0.37125 1.36125 0.37125 2.75 0.75 C-0.25617269 3.75617269 -3.07381598 3.34585316 -7.25 3.75 C-4.05 -0.31153846 -4.05 -0.31153846 0 0 Z " fill="#1F252B" transform="translate(270.25,46.25)"/>
<path d="M0 0 C0.33 0.66 0.66 1.32 1 2 C-1.45454545 7.72727273 -1.45454545 7.72727273 -4 9 C-3.6875 5.625 -3.6875 5.625 -3 2 C-2.01 1.34 -1.02 0.68 0 0 Z " fill="#1A2024" transform="translate(267,437)"/>
<path d="M0 0 C0.99 0 1.98 0 3 0 C2.67 3.63 2.34 7.26 2 11 C1.67 11 1.34 11 1 11 C0 3.375 0 3.375 0 0 Z " fill="#34393D" transform="translate(220,419)"/>
<path d="M0 0 C1.33333333 0 2.66666667 0 4 0 C4 1.98 4 3.96 4 6 C3.01 6.495 3.01 6.495 2 7 C0.5393715 4.35261084 0 3.10551666 0 0 Z " fill="#28323B" transform="translate(540,417)"/>
<path d="M0 0 C0.66 0.33 1.32 0.66 2 1 C-2.75 5.875 -2.75 5.875 -5 7 C-3.75023244 3.34683329 -3.32901247 2.21934164 0 0 Z " fill="#DBDEE1" transform="translate(427,410)"/>
<path d="M0 0 C1.2077558 3.62326739 0.54311128 4.64146369 -1 8 C-1.66 7.34 -2.32 6.68 -3 6 C-2.75 3.4375 -2.75 3.4375 -2 1 C-1.34 0.67 -0.68 0.34 0 0 Z " fill="#2B333F" transform="translate(407,305)"/>
<path d="M0 0 C1.66666667 0 3.33333333 0 5 0 C5 0.66 5 1.32 5 2 C1.53846154 5 1.53846154 5 -1 5 C-0.67 3.35 -0.34 1.7 0 0 Z " fill="#23292D" transform="translate(436,278)"/>
<path d="M0 0 C-1.95216435 1.95216435 -3.53199953 2.84826645 -6 4 C-6.66 3.01 -7.32 2.02 -8 1 C-3.375 -1.125 -3.375 -1.125 0 0 Z " fill="#343A41" transform="translate(215,246)"/>
<path d="M0 0 C2.0625 0.4375 2.0625 0.4375 4 1 C2.71937515 2.7074998 1.38232443 4.37373596 0 6 C-0.66 6 -1.32 6 -2 6 C-1.125 1.125 -1.125 1.125 0 0 Z " fill="#333D44" transform="translate(392,10)"/>
</svg>
